<svg xmlns="http://www.w3.org/2000/svg" style="display: none;">


<!--
    // 0) Даём у тега <symbol> для id название sprite-название

    <symbol id="sprite-github">
    // 1) Пример: Скопировал из папки svg - github.svg.
    <svg width="24" height="24" viewBox="0 0 24 24" fill="none" xmlns="http://www.w3.org/2000/svg">
        <path d="M12 2C10.6868 2 9.38642 2.25866 8.17317 2.7612C6.95991 3.26375 5.85752 4.00035 4.92893 4.92893C3.05357 6.8043 2 9.34784 2 12C2 16.42 4.87 20.17 8.84 21.5C9.34 21.58 9.5 21.27 9.5 21V19.31C6.73 19.91 6.14 17.97 6.14 17.97C5.68 16.81 5.03 16.5 5.03 16.5C4.12 15.88 5.1 15.9 5.1 15.9C6.1 15.97 6.63 16.93 6.63 16.93C7.5 18.45 8.97 18 9.54 17.76C9.63 17.11 9.89 16.67 10.17 16.42C7.95 16.17 5.62 15.31 5.62 11.5C5.62 10.39 6 9.5 6.65 8.79C6.55 8.54 6.2 7.5 6.75 6.15C6.75 6.15 7.59 5.88 9.5 7.17C10.29 6.95 11.15 6.84 12 6.84C12.85 6.84 13.71 6.95 14.5 7.17C16.41 5.88 17.25 6.15 17.25 6.15C17.8 7.5 17.45 8.54 17.35 8.79C18 9.5 18.38 10.39 18.38 11.5C18.38 15.32 16.04 16.16 13.81 16.41C14.17 16.72 14.5 17.33 14.5 18.26V21C14.5 21.27 14.66 21.59 15.17 21.5C19.14 20.16 22 16.42 22 12C22 10.6868 21.7413 9.38642 21.2388 8.17317C20.7362 6.95991 19.9997 5.85752 19.0711 4.92893C18.1425 4.00035 17.0401 3.26375 15.8268 2.7612C14.6136 2.25866 13.3132 2 12 2V2Z" fill="#16161A"/>
    </svg>


    // 2) Убираем тег <svg>, оставляем только внутреннее
        <path d="M12 2C10.6868 2 9.38642 2.25866 8.17317 2.7612C6.95991 3.26375 5.85752 4.00035 4.92893 4.92893C3.05357 6.8043 2 9.34784 2 12C2 16.42 4.87 20.17 8.84 21.5C9.34 21.58 9.5 21.27 9.5 21V19.31C6.73 19.91 6.14 17.97 6.14 17.97C5.68 16.81 5.03 16.5 5.03 16.5C4.12 15.88 5.1 15.9 5.1 15.9C6.1 15.97 6.63 16.93 6.63 16.93C7.5 18.45 8.97 18 9.54 17.76C9.63 17.11 9.89 16.67 10.17 16.42C7.95 16.17 5.62 15.31 5.62 11.5C5.62 10.39 6 9.5 6.65 8.79C6.55 8.54 6.2 7.5 6.75 6.15C6.75 6.15 7.59 5.88 9.5 7.17C10.29 6.95 11.15 6.84 12 6.84C12.85 6.84 13.71 6.95 14.5 7.17C16.41 5.88 17.25 6.15 17.25 6.15C17.8 7.5 17.45 8.54 17.35 8.79C18 9.5 18.38 10.39 18.38 11.5C18.38 15.32 16.04 16.16 13.81 16.41C14.17 16.72 14.5 17.33 14.5 18.26V21C14.5 21.27 14.66 21.59 15.17 21.5C19.14 20.16 22 16.42 22 12C22 10.6868 21.7413 9.38642 21.2388 8.17317C20.7362 6.95991 19.9997 5.85752 19.0711 4.92893C18.1425 4.00035 17.0401 3.26375 15.8268 2.7612C14.6136 2.25866 13.3132 2 12 2V2Z" fill="#16161A"/>

    // 3)  Убираем из path настройку fill, готово!
        <path d="M12 2C10.6868 2 9.38642 2.25866 8.17317 2.7612C6.95991 3.26375 5.85752 4.00035 4.92893 4.92893C3.05357 6.8043 2 9.34784 2 12C2 16.42 4.87 20.17 8.84 21.5C9.34 21.58 9.5 21.27 9.5 21V19.31C6.73 19.91 6.14 17.97 6.14 17.97C5.68 16.81 5.03 16.5 5.03 16.5C4.12 15.88 5.1 15.9 5.1 15.9C6.1 15.97 6.63 16.93 6.63 16.93C7.5 18.45 8.97 18 9.54 17.76C9.63 17.11 9.89 16.67 10.17 16.42C7.95 16.17 5.62 15.31 5.62 11.5C5.62 10.39 6 9.5 6.65 8.79C6.55 8.54 6.2 7.5 6.75 6.15C6.75 6.15 7.59 5.88 9.5 7.17C10.29 6.95 11.15 6.84 12 6.84C12.85 6.84 13.71 6.95 14.5 7.17C16.41 5.88 17.25 6.15 17.25 6.15C17.8 7.5 17.45 8.54 17.35 8.79C18 9.5 18.38 10.39 18.38 11.5C18.38 15.32 16.04 16.16 13.81 16.41C14.17 16.72 14.5 17.33 14.5 18.26V21C14.5 21.27 14.66 21.59 15.17 21.5C19.14 20.16 22 16.42 22 12C22 10.6868 21.7413 9.38642 21.2388 8.17317C20.7362 6.95991 19.9997 5.85752 19.0711 4.92893C18.1425 4.00035 17.0401 3.26375 15.8268 2.7612C14.6136 2.25866 13.3132 2 12 2V2Z"/>

</symbol>


-->
    <!-- Итог, дальше делаем компонент <SvgIcon> и туда из тега <symbol> название id, т.е то, что идёт после sprite-, в нашем случае react. Пример в AnotherComponent-->
    <symbol id="sprite-github">
        <path d="M12 2C10.6868 2 9.38642 2.25866 8.17317 2.7612C6.95991 3.26375 5.85752 4.00035 4.92893 4.92893C3.05357 6.8043 2 9.34784 2 12C2 16.42 4.87 20.17 8.84 21.5C9.34 21.58 9.5 21.27 9.5 21V19.31C6.73 19.91 6.14 17.97 6.14 17.97C5.68 16.81 5.03 16.5 5.03 16.5C4.12 15.88 5.1 15.9 5.1 15.9C6.1 15.97 6.63 16.93 6.63 16.93C7.5 18.45 8.97 18 9.54 17.76C9.63 17.11 9.89 16.67 10.17 16.42C7.95 16.17 5.62 15.31 5.62 11.5C5.62 10.39 6 9.5 6.65 8.79C6.55 8.54 6.2 7.5 6.75 6.15C6.75 6.15 7.59 5.88 9.5 7.17C10.29 6.95 11.15 6.84 12 6.84C12.85 6.84 13.71 6.95 14.5 7.17C16.41 5.88 17.25 6.15 17.25 6.15C17.8 7.5 17.45 8.54 17.35 8.79C18 9.5 18.38 10.39 18.38 11.5C18.38 15.32 16.04 16.16 13.81 16.41C14.17 16.72 14.5 17.33 14.5 18.26V21C14.5 21.27 14.66 21.59 15.17 21.5C19.14 20.16 22 16.42 22 12C22 10.6868 21.7413 9.38642 21.2388 8.17317C20.7362 6.95991 19.9997 5.85752 19.0711 4.92893C18.1425 4.00035 17.0401 3.26375 15.8268 2.7612C14.6136 2.25866 13.3132 2 12 2V2Z"/>
    </symbol>
    <symbol id="sprite-design">
        <path d="M33.9578 13.1023L26.9141 6.04375C26.4485 5.57702 25.8166 5.31426 25.1574 5.31323C24.4981 5.31221 23.8655 5.573 23.3984 6.03828L23.393 6.04375L17.5 11.9438V33.125L33.9578 16.6328C34.4251 16.1642 34.6875 15.5294 34.6875 14.8676C34.6875 14.2058 34.4251 13.571 33.9578 13.1023ZM37.5 25H29.1477L14.5844 39.5711C14.4234 39.7328 14.2328 39.8508 14.0625 40H37.5C38.163 40 38.7989 39.7366 39.2678 39.2678C39.7366 38.7989 40 38.163 40 37.5V27.5C40 26.837 39.7366 26.2011 39.2678 25.7322C38.7989 25.2634 38.163 25 37.5 25ZM15 2.5C15 1.83696 14.7366 1.20107 14.2678 0.732233C13.7989 0.263392 13.163 0 12.5 0L2.5 0C1.83696 0 1.20107 0.263392 0.732233 0.732233C0.263392 1.20107 0 1.83696 0 2.5L0 32.5C0 34.4891 0.790176 36.3968 2.1967 37.8033C3.60322 39.2098 5.51088 40 7.5 40C9.48912 40 11.3968 39.2098 12.8033 37.8033C14.2098 36.3968 15 34.4891 15 32.5V2.5ZM7.5 34.375C7.12916 34.375 6.76665 34.265 6.45831 34.059C6.14996 33.853 5.90964 33.5601 5.76773 33.2175C5.62581 32.8749 5.58868 32.4979 5.66103 32.1342C5.73337 31.7705 5.91195 31.4364 6.17417 31.1742C6.4364 30.912 6.77049 30.7334 7.13421 30.661C7.49792 30.5887 7.87492 30.6258 8.21753 30.7677C8.56014 30.9096 8.85298 31.15 9.05901 31.4583C9.26503 31.7666 9.375 32.1292 9.375 32.5C9.375 32.9973 9.17746 33.4742 8.82583 33.8258C8.47419 34.1775 7.99728 34.375 7.5 34.375ZM10 20H5V15H10V20ZM10 10H5V5H10V10Z" />
    </symbol>
    <symbol id="sprite-speed">
        <path d="M20 0.444458C8.95417 0.444458 0 9.39862 0 20.4445C0 24.1111 0.989584 27.5458 2.7125 30.5C3.10208 31.1681 3.84444 31.5556 4.61806 31.5556H35.3819C36.1556 31.5556 36.8979 31.1681 37.2875 30.5C39.0104 27.5458 40 24.1111 40 20.4445C40 9.39862 31.0458 0.444458 20 0.444458ZM20 4.8889C21.0215 4.8889 21.8458 5.59238 22.1056 6.53126C22.0285 6.68821 21.9222 6.82501 21.866 6.99446L21.2257 8.91599C20.8694 9.15835 20.4639 9.33335 20.0007 9.33335C18.7736 9.33335 17.7785 8.33821 17.7785 7.11112C17.7785 5.88404 18.7729 4.8889 20 4.8889ZM6.66667 24.8889C5.43958 24.8889 4.44444 23.8938 4.44444 22.6667C4.44444 21.4396 5.43958 20.4445 6.66667 20.4445C7.89375 20.4445 8.88889 21.4396 8.88889 22.6667C8.88889 23.8938 7.89375 24.8889 6.66667 24.8889ZM10 13.7778C8.77292 13.7778 7.77778 12.7827 7.77778 11.5556C7.77778 10.3285 8.77292 9.33335 10 9.33335C11.2271 9.33335 12.2222 10.3285 12.2222 11.5556C12.2222 12.7827 11.2271 13.7778 10 13.7778ZM27.1368 8.74932L22.8778 21.5271C23.8285 22.3424 24.4444 23.5375 24.4444 24.8889C24.4444 25.7028 24.2097 26.4549 23.8278 27.1111H16.1722C15.7903 26.4549 15.5556 25.7028 15.5556 24.8889C15.5556 22.532 17.3958 20.6229 19.7153 20.4729L23.975 7.69446C24.2646 6.82224 25.2063 6.34376 26.0833 6.64099C26.9563 6.93196 27.4271 7.8764 27.1368 8.74932ZM28.1549 12.7215L29.2326 9.4889C29.4736 9.39932 29.7278 9.33404 30 9.33404C31.2271 9.33404 32.2222 10.3292 32.2222 11.5563C32.2222 12.7833 31.2271 13.7785 30 13.7785C29.2097 13.7778 28.5493 13.3424 28.1549 12.7215ZM33.3333 24.8889C32.1063 24.8889 31.1111 23.8938 31.1111 22.6667C31.1111 21.4396 32.1063 20.4445 33.3333 20.4445C34.5604 20.4445 35.5556 21.4396 35.5556 22.6667C35.5556 23.8938 34.5604 24.8889 33.3333 24.8889Z"/>
    </symbol>
    <symbol id="sprite-medal">
        <path d="M17.4805 10.2148L12.0797 1.214C11.8576 0.843738 11.5434 0.537299 11.1677 0.324537C10.7921 0.111775 10.3677 -5.57342e-05 9.93591 -6.10352e-05H1.25229C0.240569 -6.10352e-05 -0.35162 1.13822 0.228069 1.96713L8.92106 14.3859C11.2429 12.2164 14.1961 10.7273 17.4805 10.2148ZM38.7477 -6.10352e-05H30.0641C29.186 -6.10352e-05 28.3719 0.460878 27.9203 1.214L22.5195 10.2148C25.8039 10.7273 28.7571 12.2164 31.0789 14.3851L39.7719 1.96713C40.3516 1.13822 39.7594 -6.10352e-05 38.7477 -6.10352e-05V-6.10352e-05ZM20 12.5C12.4062 12.5 6.24996 18.6562 6.24996 26.25C6.24996 33.8438 12.4062 40.0001 20 40.0001C27.5938 40.0001 33.75 33.8438 33.75 26.25C33.75 18.6562 27.5938 12.5 20 12.5ZM27.2281 24.7859L24.2649 27.6735L24.9656 31.7532C25.0906 32.4844 24.3203 33.043 23.6649 32.6977L20 30.7719L16.3359 32.6977C15.6797 33.0453 14.9101 32.4836 15.0351 31.7532L15.7359 27.6735L12.7726 24.7859C12.2398 24.2672 12.5344 23.3617 13.2687 23.2555L17.3648 22.6586L19.1953 18.9461C19.3602 18.6117 19.6789 18.4469 19.9984 18.4469C20.3195 18.4469 20.6406 18.6141 20.8055 18.9461L22.6359 22.6586L26.7321 23.2555C27.4664 23.3617 27.761 24.2672 27.2281 24.7859Z"/>
    </symbol>
    <symbol id="sprite-listCheck">
        <path d="M8.49111 18.9553L0.366101 10.8302C-0.122034 10.3421 -0.122034 9.55066 0.366101 9.06247L2.13383 7.2947C2.62196 6.80651 3.41347 6.80651 3.9016 7.2947L9.375 12.768L21.0984 1.04469C21.5865 0.556555 22.378 0.556555 22.8662 1.04469L24.6339 2.81247C25.122 3.3006 25.122 4.09206 24.6339 4.58024L10.2589 18.9553C9.7707 19.4434 8.97925 19.4434 8.49111 18.9553Z" fill="#9D4EDD"/>
    </symbol>
    <symbol id="sprite-clock">
        <path d="M25.75 0C11.9395 0 0.75 11.1895 0.75 25C0.75 38.8105 11.9395 50 25.75 50C39.5605 50 50.75 38.8105 50.75 25C50.75 11.1895 39.5605 0 25.75 0ZM25.75 45.1613C14.6109 45.1613 5.58871 36.1391 5.58871 25C5.58871 13.8609 14.6109 4.83871 25.75 4.83871C36.8891 4.83871 45.9113 13.8609 45.9113 25C45.9113 36.1391 36.8891 45.1613 25.75 45.1613ZM31.9798 34.6371L23.4214 28.4173C23.1089 28.1855 22.9274 27.8226 22.9274 27.4395V10.8871C22.9274 10.2218 23.4718 9.67742 24.1371 9.67742H27.3629C28.0282 9.67742 28.5726 10.2218 28.5726 10.8871V25.1714L35.3064 30.0706C35.8508 30.4637 35.9617 31.2198 35.5685 31.7641L33.6734 34.375C33.2802 34.9093 32.5242 35.0302 31.9798 34.6371Z"/>
    </symbol>
    <symbol id="sprite-copy">
        <path d="M46.0625 0C48.6514 0 50.75 2.09863 50.75 4.6875V32.8125C50.75 35.4014 48.6514 37.5 46.0625 37.5H17.9375C15.3486 37.5 13.25 35.4014 13.25 32.8125V4.6875C13.25 2.09863 15.3486 0 17.9375 0H46.0625ZM17.9375 40.625C13.6297 40.625 10.125 37.1203 10.125 32.8125V12.5H5.4375C2.84863 12.5 0.75 14.5986 0.75 17.1875V45.3125C0.75 47.9014 2.84863 50 5.4375 50H33.5625C36.1514 50 38.25 47.9014 38.25 45.3125V40.625H17.9375Z"/>
    </symbol>
    <symbol id="sprite-trophy">
        <path d="M47.9167 6H38.8889V2.25C38.8889 1.00312 37.9601 0 36.8056 0H13.1944C12.0399 0 11.1111 1.00312 11.1111 2.25V6H2.08333C0.928819 6 0 7.00312 0 8.25V13.5C0 16.8469 1.95312 20.2875 5.37326 22.9406C8.10764 25.0687 11.4323 26.4187 14.9219 26.85C17.6476 31.7344 20.8333 33.75 20.8333 33.75V40.5H16.6667C13.6024 40.5 11.1111 42.4406 11.1111 45.75V46.875C11.1111 47.4937 11.5799 48 12.1528 48H37.8472C38.4201 48 38.8889 47.4937 38.8889 46.875V45.75C38.8889 42.4406 36.3976 40.5 33.3333 40.5H29.1667V33.75C29.1667 33.75 32.3524 31.7344 35.0781 26.85C38.5764 26.4187 41.901 25.0687 44.6267 22.9406C48.0382 20.2875 50 16.8469 50 13.5V8.25C50 7.00312 49.0712 6 47.9167 6ZM8.61979 18.075C6.50174 16.425 5.55556 14.5875 5.55556 13.5V12H11.1285C11.2153 15.0562 11.6319 17.7375 12.2396 20.0812C10.9288 19.5937 9.70486 18.9187 8.61979 18.075ZM44.4444 13.5C44.4444 15.0094 42.908 16.8844 41.3802 18.075C40.2951 18.9187 39.0625 19.5937 37.7517 20.0812C38.3594 17.7375 38.776 15.0562 38.8628 12H44.4444V13.5Z"/>
    </symbol>
    <symbol id="sprite-alchemy">
        <path d="M49.5441 45.0339L36.4636 23.9958V7.14293H37.3565C38.8408 7.14293 40.035 5.94872 40.035 4.46433V2.6786C40.035 1.19421 38.8408 0 37.3565 0H14.1419C12.6576 0 11.4633 1.19421 11.4633 2.6786V4.46433C11.4633 5.94872 12.6576 7.14293 14.1419 7.14293H15.0348V23.9958L1.95432 45.0339C-1.3158 50.2907 2.45656 57.1434 8.66198 57.1434H42.8364C49.053 57.1434 52.8142 50.2795 49.5441 45.0339ZM16.1397 35.7146L21.5192 27.0538C21.9322 26.4735 22.1666 25.7592 22.1666 25.0002V7.14293H29.3095V25.0002C29.3095 25.7703 29.555 26.4735 29.9568 27.0538L35.3363 35.7146H16.1397Z" />
    </symbol>
    <symbol id="sprite-key">
        <path d="M30.1667 10.3126C30.1667 16.008 25.5497 20.625 19.8542 20.625C19.1968 20.625 18.5541 20.5628 17.9308 20.4452L16.5238 22.028C16.3919 22.1765 16.23 22.2953 16.0489 22.3766C15.8677 22.458 15.6714 22.5 15.4728 22.5H13.2917V24.8438C13.2917 25.6204 12.6622 26.25 11.8855 26.25H9.54175V28.5938C9.54175 29.3704 8.91216 30 8.1355 30H1.573C0.796338 30 0.166748 29.3704 0.166748 28.5938V24.02C0.166748 23.647 0.314932 23.2893 0.578604 23.0256L10.0592 13.545C9.72386 12.5282 9.54175 11.4417 9.54175 10.3125C9.54175 4.61707 14.1588 5.85943e-05 19.8542 5.59721e-10C25.5664 -5.85932e-05 30.1667 4.60025 30.1667 10.3126ZM19.8542 7.5C19.8542 9.05332 21.1134 10.3125 22.6667 10.3125C24.2201 10.3125 25.4792 9.05332 25.4792 7.5C25.4792 5.94668 24.2201 4.6875 22.6667 4.6875C21.1134 4.6875 19.8542 5.94668 19.8542 7.5Z"/>
    </symbol>
    <symbol id="sprite-layout">
        <path d="M27.278 20.6805C25.8103 21.8717 24.1943 22.859 22.4418 23.5545L25.628 29.0734L28.7891 30.4234C29.3639 30.6689 30.0131 30.2939 30.0881 29.6734L30.4994 26.2603L27.278 20.6805ZM29.7676 15.14C30.0524 14.6906 29.8784 14.0859 29.4131 13.8281L27.7684 12.9158C27.3302 12.6727 26.7952 12.8303 26.5227 13.251C24.114 16.9734 19.968 19.2497 15.5003 19.2497C14.0981 19.2497 12.7329 19.0007 11.4333 18.5741L15.3801 11.7375C15.4212 11.7387 15.4587 11.7498 15.4997 11.7498C15.5407 11.7498 15.5788 11.7387 15.6192 11.7375L18.6127 16.923C20.4426 16.398 22.1025 15.4142 23.4531 14.0566L20.4185 8.80026C20.8551 8.00164 21.1252 7.09931 21.1252 6.12491C21.1252 3.01832 18.6068 0.5 15.5003 0.5C12.3937 0.5 9.87534 3.01832 9.87534 6.12491C9.87534 7.09931 10.1455 8.00164 10.5814 8.80026L6.5795 15.7324C5.84416 15.0521 5.17561 14.2916 4.60609 13.4473C4.32543 13.0313 3.78755 12.8836 3.35337 13.135L1.72742 14.0765C1.26747 14.3426 1.10458 14.9496 1.39696 15.3931C2.30925 16.7783 3.42954 17.9835 4.67699 19.0271L0.500488 26.2609L0.91181 29.674C0.986809 30.2945 1.63602 30.6695 2.21081 30.424L5.3719 29.074L9.52027 21.8887C11.4064 22.6059 13.4272 22.9997 15.5003 22.9997C21.3039 22.9997 26.6845 20.0108 29.7676 15.14ZM15.5003 4.24994C16.5356 4.24994 17.3752 5.08958 17.3752 6.12491C17.3752 7.16025 16.5356 7.99988 15.5003 7.99988C14.4649 7.99988 13.6253 7.16025 13.6253 6.12491C13.6253 5.08958 14.4649 4.24994 15.5003 4.24994Z" />
    </symbol>
    <symbol id="sprite-browser">
        <path d="M8.78658 13.1724L4.16536 6.07124C7.04455 2.4904 11.3633 0.518514 15.7789 0.500368C18.3375 0.482222 20.9506 1.13548 23.3277 2.50854C25.9528 4.03282 27.9489 6.22245 29.2191 8.73872L16.8011 8.08546C13.2868 7.8798 9.94189 9.85773 8.78658 13.1724ZM10.7766 15.5012C10.7766 18.2957 13.0388 20.5579 15.8333 20.5579C18.6278 20.5579 20.8901 18.2957 20.8901 15.5012C20.8901 12.7067 18.6278 10.4445 15.8333 10.4445C13.0388 10.4445 10.7766 12.7006 10.7766 15.5012ZM29.824 10.1057L21.374 10.5412C23.6664 13.2208 23.7027 17.0859 21.7732 20.0498L14.9926 30.4778C17.8052 30.629 20.7026 30.0121 23.3277 28.4878C29.824 24.7376 32.4552 16.8742 29.824 10.1057ZM8.91965 18.3804L3.2762 7.28098C1.73378 9.63998 0.83252 12.4708 0.83252 15.5012C0.83252 23.0016 6.32475 29.2136 13.5046 30.3145L17.3576 22.7657C13.8736 23.419 10.5105 21.5076 8.91965 18.3804Z" />
    </symbol>
    <symbol id="sprite-arrowTop">
        <path d="M1.3399 11.4965L0.32295 10.5055C-0.10765 10.0859 -0.10765 9.40743 0.32295 8.9923L9.22355 0.314697C9.65415 -0.104899 10.3504 -0.104899 10.7765 0.314697L19.6771 8.98784C20.1077 9.40743 20.1077 10.0859 19.6771 10.5011L18.6601 11.492C18.2249 11.9161 17.5149 11.9072 17.0889 11.4742L11.8346 6.09977V18.9287C11.8346 19.5224 11.3445 20 10.7352 20H9.26935C8.6601 20 8.16995 19.5224 8.16995 18.9287V6.09977L2.91113 11.4786C2.48511 11.9161 1.77508 11.925 1.3399 11.4965Z" />
    </symbol>
    <symbol id="sprite-smile">
        <path d="M20.1915 24.6935C21.4415 22.8085 21.7137 20.9335 21.7742 19.0484C21.7238 17.1633 21.4415 15.2883 20.1915 13.4032C19.3851 12.1935 17.6613 12.254 16.8952 13.4032C15.6452 15.2883 15.373 17.1633 15.3125 19.0484C15.3629 20.9335 15.6452 22.8085 16.8952 24.6935C17.7117 25.9032 19.4355 25.8427 20.1915 24.6935ZM33.0948 24.6935C34.3448 22.8085 34.6169 20.9335 34.6774 19.0484C34.627 17.1633 34.3448 15.2883 33.0948 13.4032C32.2883 12.1935 30.5645 12.254 29.7984 13.4032C28.5484 15.2883 28.2762 17.1633 28.2157 19.0484C28.2661 20.9335 28.5484 22.8085 29.7984 24.6935C30.6149 25.9032 32.3387 25.8427 33.0948 24.6935ZM25 0.5C11.1895 0.5 0 11.6895 0 25.5C0 39.3105 11.1895 50.5 25 50.5C38.8105 50.5 50 39.3105 50 25.5C50 11.6895 38.8105 0.5 25 0.5ZM25 45.6613C13.881 45.6613 4.83871 36.6189 4.83871 25.5C4.83871 14.381 13.881 5.33871 25 5.33871C36.1189 5.33871 45.1613 14.381 45.1613 25.5C45.1613 36.6189 36.1189 45.6613 25 45.6613ZM35.6452 30.3992C33.0343 31.2359 29.1532 31.7198 25 31.7198C20.8468 31.7198 16.9758 31.2359 14.3548 30.3992C13.3569 30.0867 12.3992 30.9335 12.5706 31.9415C13.3669 36.6996 19.7581 40.006 25 40.006C30.2419 40.006 36.623 36.6895 37.4294 31.9415C37.5907 30.9536 36.6532 30.0867 35.6452 30.3992Z"/>
    </symbol>
    <symbol id="sprite-projects">
        <path d="M30 25.5H20C18.6195 25.5 17.5 26.6195 17.5 28V38C17.5 39.3805 18.6195 40.5 20 40.5H30C31.3805 40.5 32.5 39.3805 32.5 38V28C32.5 26.6195 31.3805 25.5 30 25.5ZM15 3C15 1.61953 13.8805 0.5 12.5 0.5H2.5C1.11953 0.5 0 1.61953 0 3V13C0 14.3805 1.11953 15.5 2.5 15.5H9.97812L15.6938 25.5031C16.5609 24.0141 18.1562 23 20 23H20.0219L15 14.2117V10.5H32.5V5.5H15V3ZM47.5 0.5H37.5C36.1195 0.5 35 1.61953 35 3V13C35 14.3805 36.1195 15.5 37.5 15.5H47.5C48.8805 15.5 50 14.3805 50 13V3C50 1.61953 48.8805 0.5 47.5 0.5Z"/>
    </symbol>
    <symbol id="sprite-calendary">
        <path d="M14.4531 28.125H10.5469C9.90234 28.125 9.375 27.5977 9.375 26.9531V23.0469C9.375 22.4023 9.90234 21.875 10.5469 21.875H14.4531C15.0977 21.875 15.625 22.4023 15.625 23.0469V26.9531C15.625 27.5977 15.0977 28.125 14.4531 28.125ZM25 26.9531V23.0469C25 22.4023 24.4727 21.875 23.8281 21.875H19.9219C19.2773 21.875 18.75 22.4023 18.75 23.0469V26.9531C18.75 27.5977 19.2773 28.125 19.9219 28.125H23.8281C24.4727 28.125 25 27.5977 25 26.9531ZM34.375 26.9531V23.0469C34.375 22.4023 33.8477 21.875 33.2031 21.875H29.2969C28.6523 21.875 28.125 22.4023 28.125 23.0469V26.9531C28.125 27.5977 28.6523 28.125 29.2969 28.125H33.2031C33.8477 28.125 34.375 27.5977 34.375 26.9531ZM25 36.3281V32.4219C25 31.7773 24.4727 31.25 23.8281 31.25H19.9219C19.2773 31.25 18.75 31.7773 18.75 32.4219V36.3281C18.75 36.9727 19.2773 37.5 19.9219 37.5H23.8281C24.4727 37.5 25 36.9727 25 36.3281ZM15.625 36.3281V32.4219C15.625 31.7773 15.0977 31.25 14.4531 31.25H10.5469C9.90234 31.25 9.375 31.7773 9.375 32.4219V36.3281C9.375 36.9727 9.90234 37.5 10.5469 37.5H14.4531C15.0977 37.5 15.625 36.9727 15.625 36.3281ZM34.375 36.3281V32.4219C34.375 31.7773 33.8477 31.25 33.2031 31.25H29.2969C28.6523 31.25 28.125 31.7773 28.125 32.4219V36.3281C28.125 36.9727 28.6523 37.5 29.2969 37.5H33.2031C33.8477 37.5 34.375 36.9727 34.375 36.3281ZM43.75 10.9375V45.3125C43.75 47.9004 41.6504 50 39.0625 50H4.6875C2.09961 50 0 47.9004 0 45.3125V10.9375C0 8.34961 2.09961 6.25 4.6875 6.25H9.375V1.17188C9.375 0.527344 9.90234 0 10.5469 0H14.4531C15.0977 0 15.625 0.527344 15.625 1.17188V6.25H28.125V1.17188C28.125 0.527344 28.6523 0 29.2969 0H33.2031C33.8477 0 34.375 0.527344 34.375 1.17188V6.25H39.0625C41.6504 6.25 43.75 8.34961 43.75 10.9375ZM39.0625 44.7266V15.625H4.6875V44.7266C4.6875 45.0488 4.95117 45.3125 5.27344 45.3125H38.4766C38.7988 45.3125 39.0625 45.0488 39.0625 44.7266Z"/>
    </symbol>
    <symbol id="sprite-globe">
            <path class="st1" d="M215,386.86c-29.44,0-56.92-18.25-77.35-51.4c-19.9-32.27-30.86-75.05-30.86-120.46s10.96-88.2,30.86-120.47
		c20.44-33.14,47.91-51.4,77.35-51.4c3.21,0,5.81,2.6,5.81,5.81s-2.6,5.81-5.81,5.81c-25.26,0-49.22,16.29-67.46,45.87
		c-18.78,30.46-29.13,71.07-29.13,114.36c0,43.29,10.34,83.91,29.13,114.36c18.24,29.58,42.2,45.87,67.46,45.87
		c3.21,0,5.81,2.6,5.81,5.81S218.21,386.86,215,386.86z"/>
            <path class="st1" d="M215,386.86c-0.02,0-0.04,0-0.06,0c-3.21-0.03-5.79-2.66-5.76-5.87c0.24-24.96,0.55-69.32,0.55-166
		c0-72.64-0.18-102.21-0.38-136.44c-0.05-9.15-0.11-18.71-0.17-29.58c-0.02-3.21,2.57-5.83,5.78-5.84c0.01,0,0.02,0,0.03,0
		c3.2,0,5.79,2.58,5.81,5.78c0.06,10.86,0.11,20.42,0.17,29.57c0.21,34.25,0.38,63.84,0.38,136.51c0,96.72-0.31,141.12-0.55,166.1
		C220.78,384.29,218.18,386.86,215,386.86z"/>
            <path class="st1" d="M215,386.86c-3.21,0-5.81-2.6-5.81-5.81s2.6-5.81,5.81-5.81c55.09,0,99.91-71.88,99.91-160.24
		c0-88.36-44.82-160.24-99.91-160.24c-3.21,0-5.81-2.6-5.81-5.81s2.6-5.81,5.81-5.81c30.29,0,58.58,18.23,79.66,51.33
		c20.55,32.28,31.87,75.09,31.87,120.54s-11.32,88.25-31.87,120.54C273.58,368.63,245.29,386.86,215,386.86z"/>
            <path class="st1" d="M381.05,220.81H48.95c-3.21,0-5.81-2.6-5.81-5.81s2.6-5.81,5.81-5.81h332.1c3.21,0,5.81,2.6,5.81,5.81
		S384.26,220.81,381.05,220.81z"/>
            <path class="st1" d="M215.02,118.43c-40.22,0-79.31-8.86-110.06-24.94c-2.84-1.49-3.94-5-2.46-7.84c1.49-2.84,5-3.94,7.84-2.46
		c29.12,15.23,66.29,23.62,104.67,23.62c38.39,0,75.55-8.39,104.64-23.61c2.84-1.49,6.35-0.39,7.84,2.45
		c1.49,2.84,0.39,6.36-2.45,7.84C294.33,109.57,255.26,118.43,215.02,118.43z"/>
            <path class="st1" d="M322.35,347.47c-0.91,0-1.83-0.21-2.69-0.66c-29.12-15.23-66.29-23.62-104.67-23.62
		c-38.39,0-75.55,8.39-104.64,23.61c-2.85,1.49-6.36,0.39-7.84-2.45c-1.49-2.84-0.39-6.36,2.45-7.84
		c30.72-16.08,69.79-24.94,110.03-24.94c40.22,0,79.31,8.86,110.06,24.94c2.84,1.49,3.94,5,2.46,7.84
		C326.47,346.34,324.45,347.47,322.35,347.47z"/>
            <path class="st0" d="M215,386.86c-94.76,0-171.86-77.1-171.86-171.86S120.24,43.14,215,43.14c94.77,0,171.86,77.1,171.86,171.86
		S309.77,386.86,215,386.86z M215,54.76c-88.36,0-160.24,71.88-160.24,160.24S126.65,375.24,215,375.24
		c88.36,0,160.24-71.88,160.24-160.24S303.36,54.76,215,54.76z"/>
    </symbol>
    <symbol id='sprite-email'>
        <rect y="0.5" width="50" height="50" rx="4" fill="#9D4EDD"/>
        <path d="M37.0264 22.3164C37.2168 22.165 37.5 22.3066 37.5 22.5459V32.5312C37.5 33.8252 36.4502 34.875 35.1562 34.875H14.8438C13.5498 34.875 12.5 33.8252 12.5 32.5312V22.5508C12.5 22.3066 12.7783 22.1699 12.9736 22.3213C14.0674 23.1709 15.5176 24.25 20.498 27.8682C21.5283 28.6201 23.2666 30.2021 25 30.1924C26.7432 30.207 28.5156 28.5908 29.5068 27.8682C34.4873 24.25 35.9326 23.166 37.0264 22.3164ZM25 28.625C26.1328 28.6445 27.7637 27.1992 28.584 26.6035C35.0635 21.9014 35.5566 21.4912 37.0508 20.3193C37.334 20.0996 37.5 19.7578 37.5 19.3965V18.4687C37.5 17.1748 36.4502 16.125 35.1562 16.125H14.8438C13.5498 16.125 12.5 17.1748 12.5 18.4687V19.3965C12.5 19.7578 12.666 20.0947 12.9492 20.3193C14.4434 21.4863 14.9365 21.9014 21.416 26.6035C22.2363 27.1992 23.8672 28.6445 25 28.625Z" fill="black"/>
    </symbol>
    <symbol id='sprite-location'>
        <rect y="0.5" width="50" height="50" rx="4" fill="#9D4EDD"/>
        <path d="M24.0365 37.4956C16.9419 27.2105 15.625 26.1549 15.625 22.375C15.625 17.1973 19.8223 13 25 13C30.1777 13 34.375 17.1973 34.375 22.375C34.375 26.1549 33.0581 27.2105 25.9635 37.4956C25.4979 38.1682 24.502 38.1681 24.0365 37.4956ZM25 26.2812C27.1574 26.2812 28.9062 24.5324 28.9062 22.375C28.9062 20.2176 27.1574 18.4687 25 18.4687C22.8426 18.4687 21.0937 20.2176 21.0937 22.375C21.0937 24.5324 22.8426 26.2812 25 26.2812Z" fill="black"/>
    </symbol>
    <symbol id='sprite-phone'>
        <rect y="0.5" width="50" height="50" rx="4" fill="#9D4EDD"/>
        <path d="M30.4688 13H19.5312C18.2373 13 17.1875 14.0498 17.1875 15.3438V35.6562C17.1875 36.9502 18.2373 38 19.5312 38H30.4688C31.7627 38 32.8125 36.9502 32.8125 35.6562V15.3438C32.8125 14.0498 31.7627 13 30.4688 13ZM25 36.4375C24.1357 36.4375 23.4375 35.7393 23.4375 34.875C23.4375 34.0107 24.1357 33.3125 25 33.3125C25.8643 33.3125 26.5625 34.0107 26.5625 34.875C26.5625 35.7393 25.8643 36.4375 25 36.4375ZM30.4688 31.1641C30.4688 31.4863 30.2051 31.75 29.8828 31.75H20.1172C19.7949 31.75 19.5312 31.4863 19.5312 31.1641V15.9297C19.5312 15.6074 19.7949 15.3438 20.1172 15.3438H29.8828C30.2051 15.3438 30.4688 15.6074 30.4688 15.9297V31.1641Z" fill="black"/>
    </symbol>
    <symbol id='sprite-inst'>
        <path d="M10 0.0537109C7.28625 0.0537109 6.945 0.0662109 5.87875 0.113711C4.8125 0.163711 4.08625 0.331211 3.45 0.578711C2.78262 0.829735 2.17811 1.22349 1.67875 1.73246C1.1701 2.23208 0.776384 2.83651 0.525 3.50371C0.2775 4.13871 0.10875 4.86621 0.06 5.92871C0.0125 6.99746 0 7.33746 0 10.055C0 12.77 0.0125 13.11 0.06 14.1762C0.11 15.2412 0.2775 15.9675 0.525 16.6037C0.78125 17.2612 1.1225 17.8187 1.67875 18.375C2.23375 18.9312 2.79125 19.2737 3.44875 19.5287C4.08625 19.7762 4.81125 19.945 5.87625 19.9937C6.94375 20.0412 7.28375 20.0537 10 20.0537C12.7163 20.0537 13.055 20.0412 14.1225 19.9937C15.1863 19.9437 15.915 19.7762 16.5513 19.5287C17.2182 19.2776 17.8223 18.8838 18.3212 18.375C18.8775 17.8187 19.2188 17.2612 19.475 16.6037C19.7213 15.9675 19.89 15.2412 19.94 14.1762C19.9875 13.11 20 12.77 20 10.0537C20 7.33746 19.9875 6.99746 19.94 5.92996C19.89 4.86621 19.7213 4.13871 19.475 3.50371C19.2237 2.83649 18.8299 2.23206 18.3212 1.73246C17.822 1.22331 17.2175 0.829518 16.55 0.578711C15.9125 0.331211 15.185 0.162461 14.1213 0.113711C13.0538 0.0662109 12.715 0.0537109 9.9975 0.0537109H10.0013H10ZM9.10375 1.85621H10.0013C12.6713 1.85621 12.9875 1.86496 14.0413 1.91371C15.0162 1.95746 15.5462 2.12121 15.8988 2.25746C16.365 2.43871 16.6987 2.65621 17.0487 3.00621C17.3988 3.35621 17.615 3.68871 17.7963 4.15621C17.9338 4.50746 18.0963 5.03746 18.14 6.01246C18.1887 7.06621 18.1987 7.38246 18.1987 10.0512C18.1987 12.72 18.1887 13.0375 18.14 14.0912C18.0963 15.0662 17.9325 15.595 17.7963 15.9475C17.6359 16.3817 17.38 16.7743 17.0475 17.0962C16.6975 17.4462 16.365 17.6625 15.8975 17.8437C15.5475 17.9812 15.0175 18.1437 14.0413 18.1887C12.9875 18.2362 12.6713 18.2475 10.0013 18.2475C7.33125 18.2475 7.01375 18.2362 5.96 18.1887C4.985 18.1437 4.45625 17.9812 4.10375 17.8437C3.66937 17.6836 3.27641 17.4282 2.95375 17.0962C2.62094 16.7738 2.36465 16.3808 2.20375 15.9462C2.0675 15.595 1.90375 15.065 1.86 14.09C1.8125 13.0362 1.8025 12.72 1.8025 10.0487C1.8025 7.37871 1.8125 7.06371 1.86 6.00996C1.905 5.03496 2.0675 4.50496 2.205 4.15246C2.38625 3.68621 2.60375 3.35246 2.95375 3.00246C3.30375 2.65246 3.63625 2.43621 4.10375 2.25496C4.45625 2.11746 4.985 1.95496 5.96 1.90996C6.8825 1.86746 7.24 1.85496 9.10375 1.85371V1.85621ZM15.3387 3.51621C15.1812 3.51621 15.0251 3.54725 14.8795 3.60756C14.7339 3.66786 14.6017 3.75625 14.4902 3.86768C14.3788 3.97911 14.2904 4.1114 14.2301 4.25699C14.1698 4.40258 14.1388 4.55862 14.1388 4.71621C14.1388 4.8738 14.1698 5.02984 14.2301 5.17543C14.2904 5.32102 14.3788 5.45331 14.4902 5.56474C14.6017 5.67617 14.7339 5.76456 14.8795 5.82487C15.0251 5.88517 15.1812 5.91621 15.3387 5.91621C15.657 5.91621 15.9622 5.78978 16.1873 5.56474C16.4123 5.3397 16.5387 5.03447 16.5387 4.71621C16.5387 4.39795 16.4123 4.09273 16.1873 3.86768C15.9622 3.64264 15.657 3.51621 15.3387 3.51621ZM10.0013 4.91871C9.32009 4.90808 8.64362 5.03307 8.01122 5.28639C7.37883 5.53971 6.80314 5.9163 6.31769 6.39424C5.83223 6.87218 5.4467 7.44192 5.18355 8.07029C4.9204 8.69865 4.78488 9.37309 4.78488 10.0543C4.78488 10.7356 4.9204 11.41 5.18355 12.0384C5.4467 12.6668 5.83223 13.2365 6.31769 13.7144C6.80314 14.1924 7.37883 14.569 8.01122 14.8223C8.64362 15.0756 9.32009 15.2006 10.0013 15.19C11.3494 15.1689 12.6353 14.6186 13.5812 13.6578C14.5272 12.6969 15.0574 11.4027 15.0574 10.0543C15.0574 8.706 14.5272 7.41173 13.5812 6.4509C12.6353 5.49007 11.3494 4.93974 10.0013 4.91871ZM10.0013 6.71996C10.8854 6.71996 11.7334 7.07119 12.3586 7.69639C12.9838 8.32159 13.335 9.16955 13.335 10.0537C13.335 10.9379 12.9838 11.7858 12.3586 12.411C11.7334 13.0362 10.8854 13.3875 10.0013 13.3875C9.11709 13.3875 8.26913 13.0362 7.64393 12.411C7.01873 11.7858 6.6675 10.9379 6.6675 10.0537C6.6675 9.16955 7.01873 8.32159 7.64393 7.69639C8.26913 7.07119 9.11709 6.71996 10.0013 6.71996Z" />
    </symbol>
    <symbol id='sprite-fb'>
        <path d="M20 10.115C20 4.55815 15.5231 0.0537109 10.0012 0.0537109C4.47694 0.0549608 0 4.55815 0 10.1162C0 15.1368 3.65704 19.2988 8.43645 20.0537V13.0233H5.89926V10.1162H8.43894V7.89773C8.43894 5.3768 9.93251 3.98447 12.216 3.98447C13.3108 3.98447 14.4544 4.1807 14.4544 4.1807V6.65539H13.1933C11.9523 6.65539 11.5648 7.43154 11.5648 8.22769V10.115H14.337L13.8945 13.0221H11.5636V20.0525C16.343 19.2976 20 15.1356 20 10.115Z" />
    </symbol>
    <symbol id='sprite-tg'>
        <path d="M20 10.0537C20 12.7059 18.9464 15.2494 17.0711 17.1248C15.1957 19.0001 12.6522 20.0537 10 20.0537C7.34784 20.0537 4.8043 19.0001 2.92893 17.1248C1.05357 15.2494 0 12.7059 0 10.0537C0 7.40155 1.05357 4.85801 2.92893 2.98264C4.8043 1.10728 7.34784 0.0537109 10 0.0537109C12.6522 0.0537109 15.1957 1.10728 17.0711 2.98264C18.9464 4.85801 20 7.40155 20 10.0537ZM10.3587 7.43621C9.38625 7.84121 7.44125 8.67871 4.52625 9.94871C4.05375 10.1362 3.805 10.3212 3.7825 10.5012C3.745 10.805 4.12625 10.925 4.645 11.0887L4.86375 11.1575C5.37375 11.3237 6.06125 11.5175 6.4175 11.525C6.7425 11.5325 7.10375 11.4 7.5025 11.125C10.2262 9.28621 11.6325 8.35746 11.72 8.33746C11.7825 8.32246 11.87 8.30496 11.9275 8.35746C11.9862 8.40871 11.98 8.50746 11.9738 8.53371C11.9363 8.69496 10.44 10.085 9.66625 10.805C9.425 11.03 9.25375 11.1887 9.21875 11.225C9.14168 11.3037 9.06333 11.3812 8.98375 11.4575C8.50875 11.915 8.15375 12.2575 9.0025 12.8175C9.41125 13.0875 9.73875 13.3087 10.065 13.5312C10.42 13.7737 10.775 14.015 11.235 14.3175C11.3512 14.3925 11.4638 14.4737 11.5725 14.5512C11.9863 14.8462 12.36 15.1112 12.8188 15.0687C13.0863 15.0437 13.3625 14.7937 13.5025 14.0437C13.8337 12.2725 14.485 8.43621 14.635 6.85496C14.6442 6.72351 14.6387 6.59146 14.6187 6.46121C14.607 6.35611 14.5561 6.25928 14.4763 6.18996C14.3625 6.11145 14.2269 6.07077 14.0887 6.07371C13.7137 6.07996 13.135 6.28121 10.3587 7.43621Z" />
    </symbol>
    <symbol id='sprite-arrowRight'>
        <path d="M7.94813 6.96634L2.60762 12.3068C2.35006 12.5644 1.93248 12.5644 1.67494 12.3068L1.05206 11.6839C0.794928 11.4268 0.794434 11.0101 1.05096 10.7524L5.2834 6.49999L1.05096 2.24765C0.794434 1.98991 0.794928 1.57318 1.05206 1.31606L1.67494 0.693175C1.9325 0.435608 2.35009 0.435608 2.60762 0.693175L7.94811 6.03366C8.20567 6.2912 8.20567 6.70878 7.94813 6.96634Z"/>
    </symbol>
    <symbol id='sprite-search'>
        <path d="M15.1781 12.9272C16.3884 11.2756 16.9305 9.22795 16.6959 7.19385C16.4613 5.15975 15.4673 3.28923 13.9128 1.95652C12.3583 0.623812 10.3579 -0.0728086 8.31187 0.00602988C6.26581 0.0848684 4.32496 0.933352 2.87762 2.38173C1.43028 3.83011 0.583182 5.77156 0.505808 7.81768C0.428434 9.8638 1.12649 11.8637 2.46031 13.4172C3.79413 14.9708 5.66536 15.9634 7.69963 16.1966C9.73389 16.4297 11.7812 15.8861 13.4319 14.6746H13.4306C13.4681 14.7246 13.5081 14.7721 13.5531 14.8184L18.3654 19.6307C18.5998 19.8652 18.9178 19.9971 19.2493 19.9972C19.5809 19.9973 19.899 19.8657 20.1335 19.6313C20.3681 19.3969 20.4999 19.079 20.5 18.7474C20.5001 18.4158 20.3685 18.0978 20.1341 17.8633L15.3218 13.0509C15.2771 13.0057 15.2291 12.9639 15.1781 12.926V12.9272ZM15.5006 8.12238C15.5006 9.02518 15.3227 9.91915 14.9773 10.7532C14.6318 11.5873 14.1254 12.3452 13.487 12.9836C12.8486 13.6219 12.0907 14.1283 11.2567 14.4738C10.4226 14.8193 9.52862 14.9971 8.62582 14.9971C7.72301 14.9971 6.82905 14.8193 5.99497 14.4738C5.16089 14.1283 4.40302 13.6219 3.76464 12.9836C3.12626 12.3452 2.61987 11.5873 2.27438 10.7532C1.9289 9.91915 1.75108 9.02518 1.75108 8.12238C1.75108 6.29909 2.47538 4.55047 3.76464 3.2612C5.05391 1.97194 6.80252 1.24764 8.62582 1.24764C10.4491 1.24764 12.1977 1.97194 13.487 3.2612C14.7763 4.55047 15.5006 6.29909 15.5006 8.12238Z" />
    </symbol>
    <symbol id='sprite-header-arrow'>
        <path d="M6.49479 7.79074L0.709273 2.00518C0.430242 1.72615 0.430242 1.27377 0.709273 0.994772L1.38406 0.319984C1.66262 0.0414296 2.11407 0.0408935 2.39328 0.318793L7.00001 4.90394L11.6067 0.318793C11.8859 0.0408935 12.3374 0.0414296 12.6159 0.319984L13.2907 0.994772C13.5698 1.2738 13.5698 1.72618 13.2907 2.00518L7.50524 7.79074C7.2262 8.06974 6.77383 8.06974 6.49479 7.79074V7.79074Z"/>
    </symbol>
    <symbol id='sprite-close'>
        <path fill-rule="evenodd" clip-rule="evenodd" d="M17.3173 2.68252C17.3755 2.74058 17.4217 2.80955 17.4532 2.88548C17.4847 2.96141 17.5009 3.04281 17.5009 3.12502C17.5009 3.20723 17.4847 3.28863 17.4532 3.36456C17.4217 3.44049 17.3755 3.50946 17.3173 3.56752L3.56731 17.3175C3.44995 17.4349 3.29078 17.5008 3.12481 17.5008C2.95884 17.5008 2.79967 17.4349 2.68231 17.3175C2.56495 17.2002 2.49902 17.041 2.49902 16.875C2.49902 16.709 2.56495 16.5499 2.68231 16.4325L16.4323 2.68252C16.4904 2.62431 16.5593 2.57814 16.6353 2.54663C16.7112 2.51512 16.7926 2.4989 16.8748 2.4989C16.957 2.4989 17.0384 2.51512 17.1144 2.54663C17.1903 2.57814 17.2593 2.62431 17.3173 2.68252Z" />
        <path fill-rule="evenodd" clip-rule="evenodd" d="M2.68264 2.68252C2.62444 2.74058 2.57826 2.80955 2.54675 2.88548C2.51524 2.96141 2.49902 3.04281 2.49902 3.12502C2.49902 3.20723 2.51524 3.28863 2.54675 3.36456C2.57826 3.44049 2.62444 3.50946 2.68264 3.56752L16.4326 17.3175C16.55 17.4349 16.7092 17.5008 16.8751 17.5008C17.0411 17.5008 17.2003 17.4349 17.3176 17.3175C17.435 17.2002 17.5009 17.041 17.5009 16.875C17.5009 16.709 17.435 16.5499 17.3176 16.4325L3.56764 2.68252C3.50958 2.62431 3.44061 2.57814 3.36468 2.54663C3.28875 2.51512 3.20735 2.4989 3.12514 2.4989C3.04293 2.4989 2.96153 2.51512 2.8856 2.54663C2.80967 2.57814 2.7407 2.62431 2.68264 2.68252Z" />
    </symbol>
    <symbol id='sprite-chancery'>
        <path d="M6.58084 14.2995L14.4662 6.41531L11.8811 3.8302L8.26713 7.44419C8.22404 7.48737 8.17284 7.52163 8.11649 7.545C8.06014 7.56838 7.99973 7.58041 7.93872 7.58041C7.87771 7.58041 7.8173 7.56838 7.76095 7.545C7.7046 7.52163 7.65341 7.48737 7.61031 7.44419L6.95349 6.78737C6.77185 6.60573 6.77185 6.3116 6.95349 6.13055L10.5675 2.51655L8.59642 0.544911C7.87046 -0.181051 6.69392 -0.181051 5.96796 0.544911L0.711614 5.80126C-0.0137626 6.52722 -0.0143485 7.70376 0.711614 8.42972L6.58084 14.2995ZM29.3423 7.45591C30.4415 6.35671 30.4409 4.57491 29.3423 3.47571L26.691 0.824398C25.5918 -0.274799 23.8094 -0.274799 22.7096 0.824398L20.0132 3.52024L26.6459 10.1529L29.3423 7.45591ZM18.6872 4.84678L1.28524 22.2464L0.186038 28.5416C0.0377989 29.3906 0.777238 30.1301 1.62683 29.9807L7.92261 28.8768L25.3199 11.4789L18.6872 4.84678ZM29.6224 21.5709L27.6513 19.5998L24.0373 23.2138C23.8557 23.3954 23.5616 23.3954 23.3805 23.2138L22.7237 22.557C22.5426 22.3753 22.5426 22.0812 22.7237 21.9002L26.3377 18.2862L23.7514 15.6999L15.866 23.5841L21.7376 29.4551C22.4635 30.1811 23.6401 30.1811 24.366 29.4551L29.6224 24.1993C30.3483 23.4734 30.3483 22.2968 29.6224 21.5709Z" />
    </symbol>
    <symbol id='sprite-ad'>
        <path d="M9.72969 16.75H11.8953L10.8125 12.5922L9.72969 16.75ZM21.125 15.5C20.3498 15.5 19.7188 16.3414 19.7188 17.375C19.7188 18.4086 20.3498 19.25 21.125 19.25C21.9002 19.25 22.5312 18.4086 22.5312 17.375C22.5312 16.3414 21.9002 15.5 21.125 15.5ZM27.6875 0.5H3.3125C1.75977 0.5 0.5 2.17969 0.5 4.25V26.75C0.5 28.8203 1.75977 30.5 3.3125 30.5H27.6875C29.2402 30.5 30.5 28.8203 30.5 26.75V4.25C30.5 2.17969 29.2402 0.5 27.6875 0.5ZM15.1824 23H14.1898C13.7908 23 13.4352 22.6625 13.3039 22.1602L12.8721 20.5H8.75352L8.32109 22.1602C8.25717 22.4055 8.13751 22.6182 7.97874 22.7688C7.81996 22.9193 7.62997 23.0001 7.43516 23H6.44258C5.79746 23 5.34512 22.1523 5.55664 21.3398L8.70312 9.25937C8.79899 8.89149 8.97841 8.57255 9.21645 8.34686C9.4545 8.12117 9.73935 7.99993 10.0314 8H11.5936C11.8857 7.99993 12.1707 8.12126 12.4087 8.3471C12.6468 8.57295 12.8261 8.89209 12.9219 9.26016L16.0678 21.3398C16.2793 22.1523 15.827 23 15.1824 23V23ZM25.3438 21.75C25.3438 22.4406 24.9242 23 24.4062 23H23.4688C23.1846 23 22.9391 22.8227 22.7668 22.5563C22.2617 22.8422 21.7068 23 21.125 23C18.7988 23 16.9062 20.4766 16.9062 17.375C16.9062 14.2734 18.7988 11.75 21.125 11.75C21.6207 11.75 22.0895 11.8852 22.5312 12.0953V9.25C22.5312 8.55937 22.9508 8 23.4688 8H24.4062C24.9242 8 25.3438 8.55937 25.3438 9.25V21.75Z" fill="black"/>
    </symbol>
    <symbol id='sprite-lifebuoy'>
        <path d="M15.834 0C7.54969 0 0.833984 6.71571 0.833984 15C0.833984 23.2843 7.54969 30 15.834 30C24.1183 30 30.834 23.2843 30.834 15C30.834 6.71571 24.1183 0 15.834 0ZM26.3398 7.23139L22.5052 11.066C21.8406 9.94349 20.8921 8.99431 19.768 8.32881L23.6026 4.49419C24.6445 5.26723 25.5668 6.18953 26.3398 7.23139ZM15.834 20.8065C12.6272 20.8065 10.0275 18.2068 10.0275 15C10.0275 11.7932 12.6272 9.19355 15.834 9.19355C19.0408 9.19355 21.6404 11.7932 21.6404 15C21.6404 18.2068 19.0408 20.8065 15.834 20.8065ZM8.06538 4.49419L11.9 8.32881C10.7775 8.99335 9.8283 9.94191 9.1628 11.066L5.32818 7.23139C6.1012 6.18952 7.0235 5.26721 8.06538 4.49419ZM5.32818 22.7686L9.1628 18.934C9.82733 20.0565 10.7759 21.0057 11.9 21.6712L8.06538 25.5058C7.02351 24.7328 6.10121 23.8105 5.32818 22.7686ZM23.6026 25.5058L19.768 21.6712C20.8905 21.0067 21.8397 20.0581 22.5052 18.934L26.3398 22.7686C25.5668 23.8105 24.6445 24.7328 23.6026 25.5058Z"/>
    </symbol>
    <symbol id='sprite-speed2'>
        <path d="M15.834 0.5C7.54961 0.5 0.833984 9.13437 0.833984 19.7857C0.833984 23.3214 1.57617 26.6335 2.86836 29.4821C3.16055 30.1263 3.71732 30.5 4.29753 30.5H27.3704C27.9507 30.5 28.5074 30.1263 28.7996 29.4821C30.0918 26.6335 30.834 23.3214 30.834 19.7857C30.834 9.13437 24.1184 0.5 15.834 0.5ZM15.834 4.78571C16.6001 4.78571 17.2184 5.46406 17.4132 6.36942C17.3553 6.52076 17.2757 6.65268 17.2335 6.81607L16.7533 8.66897C16.4861 8.90268 16.1819 9.07143 15.8345 9.07143C14.9142 9.07143 14.1678 8.11183 14.1678 6.92857C14.1678 5.74531 14.9137 4.78571 15.834 4.78571ZM5.83398 24.0714C4.91367 24.0714 4.16732 23.1118 4.16732 21.9286C4.16732 20.7453 4.91367 19.7857 5.83398 19.7857C6.7543 19.7857 7.50065 20.7453 7.50065 21.9286C7.50065 23.1118 6.7543 24.0714 5.83398 24.0714ZM8.33398 13.3571C7.41367 13.3571 6.66732 12.3975 6.66732 11.2143C6.66732 10.031 7.41367 9.07143 8.33398 9.07143C9.2543 9.07143 10.0007 10.031 10.0007 11.2143C10.0007 12.3975 9.2543 13.3571 8.33398 13.3571ZM21.1866 8.50826L17.9923 20.8297C18.7053 21.6158 19.1673 22.7683 19.1673 24.0714C19.1673 24.8562 18.9913 25.5815 18.7048 26.2143H12.9632C12.6767 25.5815 12.5007 24.8562 12.5007 24.0714C12.5007 21.7987 13.8809 19.9578 15.6204 19.8132L18.8152 7.49107C19.0324 6.65 19.7387 6.18862 20.3965 6.47522C21.0512 6.7558 21.4043 7.66652 21.1866 8.50826V8.50826ZM21.9501 12.3386L22.7585 9.22143C22.9392 9.13504 23.1298 9.0721 23.334 9.0721C24.2543 9.0721 25.0007 10.0317 25.0007 11.215C25.0007 12.3982 24.2543 13.3578 23.334 13.3578C22.7413 13.3571 22.246 12.9373 21.9501 12.3386ZM25.834 24.0714C24.9137 24.0714 24.1673 23.1118 24.1673 21.9286C24.1673 20.7453 24.9137 19.7857 25.834 19.7857C26.7543 19.7857 27.5007 20.7453 27.5007 21.9286C27.5007 23.1118 26.7543 24.0714 25.834 24.0714Z" />
    </symbol>
</svg>
