<svg xmlns="http://www.w3.org/2000/svg" style="display: none;">


<!--
    // 0) Даём у тега <symbol> для id название sprite-название

    <symbol id="sprite-github">
    // 1) Пример: Скопировал из папки svg - github.svg.
    <svg width="24" height="24" viewBox="0 0 24 24" fill="none" xmlns="http://www.w3.org/2000/svg">
        <path d="M12 2C10.6868 2 9.38642 2.25866 8.17317 2.7612C6.95991 3.26375 5.85752 4.00035 4.92893 4.92893C3.05357 6.8043 2 9.34784 2 12C2 16.42 4.87 20.17 8.84 21.5C9.34 21.58 9.5 21.27 9.5 21V19.31C6.73 19.91 6.14 17.97 6.14 17.97C5.68 16.81 5.03 16.5 5.03 16.5C4.12 15.88 5.1 15.9 5.1 15.9C6.1 15.97 6.63 16.93 6.63 16.93C7.5 18.45 8.97 18 9.54 17.76C9.63 17.11 9.89 16.67 10.17 16.42C7.95 16.17 5.62 15.31 5.62 11.5C5.62 10.39 6 9.5 6.65 8.79C6.55 8.54 6.2 7.5 6.75 6.15C6.75 6.15 7.59 5.88 9.5 7.17C10.29 6.95 11.15 6.84 12 6.84C12.85 6.84 13.71 6.95 14.5 7.17C16.41 5.88 17.25 6.15 17.25 6.15C17.8 7.5 17.45 8.54 17.35 8.79C18 9.5 18.38 10.39 18.38 11.5C18.38 15.32 16.04 16.16 13.81 16.41C14.17 16.72 14.5 17.33 14.5 18.26V21C14.5 21.27 14.66 21.59 15.17 21.5C19.14 20.16 22 16.42 22 12C22 10.6868 21.7413 9.38642 21.2388 8.17317C20.7362 6.95991 19.9997 5.85752 19.0711 4.92893C18.1425 4.00035 17.0401 3.26375 15.8268 2.7612C14.6136 2.25866 13.3132 2 12 2V2Z" fill="#16161A"/>
    </svg>


    // 2) Убираем тег <svg>, оставляем только внутреннее
        <path d="M12 2C10.6868 2 9.38642 2.25866 8.17317 2.7612C6.95991 3.26375 5.85752 4.00035 4.92893 4.92893C3.05357 6.8043 2 9.34784 2 12C2 16.42 4.87 20.17 8.84 21.5C9.34 21.58 9.5 21.27 9.5 21V19.31C6.73 19.91 6.14 17.97 6.14 17.97C5.68 16.81 5.03 16.5 5.03 16.5C4.12 15.88 5.1 15.9 5.1 15.9C6.1 15.97 6.63 16.93 6.63 16.93C7.5 18.45 8.97 18 9.54 17.76C9.63 17.11 9.89 16.67 10.17 16.42C7.95 16.17 5.62 15.31 5.62 11.5C5.62 10.39 6 9.5 6.65 8.79C6.55 8.54 6.2 7.5 6.75 6.15C6.75 6.15 7.59 5.88 9.5 7.17C10.29 6.95 11.15 6.84 12 6.84C12.85 6.84 13.71 6.95 14.5 7.17C16.41 5.88 17.25 6.15 17.25 6.15C17.8 7.5 17.45 8.54 17.35 8.79C18 9.5 18.38 10.39 18.38 11.5C18.38 15.32 16.04 16.16 13.81 16.41C14.17 16.72 14.5 17.33 14.5 18.26V21C14.5 21.27 14.66 21.59 15.17 21.5C19.14 20.16 22 16.42 22 12C22 10.6868 21.7413 9.38642 21.2388 8.17317C20.7362 6.95991 19.9997 5.85752 19.0711 4.92893C18.1425 4.00035 17.0401 3.26375 15.8268 2.7612C14.6136 2.25866 13.3132 2 12 2V2Z" fill="#16161A"/>

    // 3)  Убираем из path настройку fill, готово!
        <path d="M12 2C10.6868 2 9.38642 2.25866 8.17317 2.7612C6.95991 3.26375 5.85752 4.00035 4.92893 4.92893C3.05357 6.8043 2 9.34784 2 12C2 16.42 4.87 20.17 8.84 21.5C9.34 21.58 9.5 21.27 9.5 21V19.31C6.73 19.91 6.14 17.97 6.14 17.97C5.68 16.81 5.03 16.5 5.03 16.5C4.12 15.88 5.1 15.9 5.1 15.9C6.1 15.97 6.63 16.93 6.63 16.93C7.5 18.45 8.97 18 9.54 17.76C9.63 17.11 9.89 16.67 10.17 16.42C7.95 16.17 5.62 15.31 5.62 11.5C5.62 10.39 6 9.5 6.65 8.79C6.55 8.54 6.2 7.5 6.75 6.15C6.75 6.15 7.59 5.88 9.5 7.17C10.29 6.95 11.15 6.84 12 6.84C12.85 6.84 13.71 6.95 14.5 7.17C16.41 5.88 17.25 6.15 17.25 6.15C17.8 7.5 17.45 8.54 17.35 8.79C18 9.5 18.38 10.39 18.38 11.5C18.38 15.32 16.04 16.16 13.81 16.41C14.17 16.72 14.5 17.33 14.5 18.26V21C14.5 21.27 14.66 21.59 15.17 21.5C19.14 20.16 22 16.42 22 12C22 10.6868 21.7413 9.38642 21.2388 8.17317C20.7362 6.95991 19.9997 5.85752 19.0711 4.92893C18.1425 4.00035 17.0401 3.26375 15.8268 2.7612C14.6136 2.25866 13.3132 2 12 2V2Z"/>

</symbol>


-->
    <!-- Итог, дальше делаем компонент <SvgIcon> и туда из тега <symbol> название id, т.е то, что идёт после sprite-, в нашем случае react. Пример в AnotherComponent-->
    <symbol id="sprite-github">
        <path d="M12 2C10.6868 2 9.38642 2.25866 8.17317 2.7612C6.95991 3.26375 5.85752 4.00035 4.92893 4.92893C3.05357 6.8043 2 9.34784 2 12C2 16.42 4.87 20.17 8.84 21.5C9.34 21.58 9.5 21.27 9.5 21V19.31C6.73 19.91 6.14 17.97 6.14 17.97C5.68 16.81 5.03 16.5 5.03 16.5C4.12 15.88 5.1 15.9 5.1 15.9C6.1 15.97 6.63 16.93 6.63 16.93C7.5 18.45 8.97 18 9.54 17.76C9.63 17.11 9.89 16.67 10.17 16.42C7.95 16.17 5.62 15.31 5.62 11.5C5.62 10.39 6 9.5 6.65 8.79C6.55 8.54 6.2 7.5 6.75 6.15C6.75 6.15 7.59 5.88 9.5 7.17C10.29 6.95 11.15 6.84 12 6.84C12.85 6.84 13.71 6.95 14.5 7.17C16.41 5.88 17.25 6.15 17.25 6.15C17.8 7.5 17.45 8.54 17.35 8.79C18 9.5 18.38 10.39 18.38 11.5C18.38 15.32 16.04 16.16 13.81 16.41C14.17 16.72 14.5 17.33 14.5 18.26V21C14.5 21.27 14.66 21.59 15.17 21.5C19.14 20.16 22 16.42 22 12C22 10.6868 21.7413 9.38642 21.2388 8.17317C20.7362 6.95991 19.9997 5.85752 19.0711 4.92893C18.1425 4.00035 17.0401 3.26375 15.8268 2.7612C14.6136 2.25866 13.3132 2 12 2V2Z"/>
    </symbol>
    <symbol id="sprite-design">
        <path d="M33.9578 13.1023L26.9141 6.04375C26.4485 5.57702 25.8166 5.31426 25.1574 5.31323C24.4981 5.31221 23.8655 5.573 23.3984 6.03828L23.393 6.04375L17.5 11.9438V33.125L33.9578 16.6328C34.4251 16.1642 34.6875 15.5294 34.6875 14.8676C34.6875 14.2058 34.4251 13.571 33.9578 13.1023ZM37.5 25H29.1477L14.5844 39.5711C14.4234 39.7328 14.2328 39.8508 14.0625 40H37.5C38.163 40 38.7989 39.7366 39.2678 39.2678C39.7366 38.7989 40 38.163 40 37.5V27.5C40 26.837 39.7366 26.2011 39.2678 25.7322C38.7989 25.2634 38.163 25 37.5 25ZM15 2.5C15 1.83696 14.7366 1.20107 14.2678 0.732233C13.7989 0.263392 13.163 0 12.5 0L2.5 0C1.83696 0 1.20107 0.263392 0.732233 0.732233C0.263392 1.20107 0 1.83696 0 2.5L0 32.5C0 34.4891 0.790176 36.3968 2.1967 37.8033C3.60322 39.2098 5.51088 40 7.5 40C9.48912 40 11.3968 39.2098 12.8033 37.8033C14.2098 36.3968 15 34.4891 15 32.5V2.5ZM7.5 34.375C7.12916 34.375 6.76665 34.265 6.45831 34.059C6.14996 33.853 5.90964 33.5601 5.76773 33.2175C5.62581 32.8749 5.58868 32.4979 5.66103 32.1342C5.73337 31.7705 5.91195 31.4364 6.17417 31.1742C6.4364 30.912 6.77049 30.7334 7.13421 30.661C7.49792 30.5887 7.87492 30.6258 8.21753 30.7677C8.56014 30.9096 8.85298 31.15 9.05901 31.4583C9.26503 31.7666 9.375 32.1292 9.375 32.5C9.375 32.9973 9.17746 33.4742 8.82583 33.8258C8.47419 34.1775 7.99728 34.375 7.5 34.375ZM10 20H5V15H10V20ZM10 10H5V5H10V10Z" />
    </symbol>
    <symbol id="sprite-speed">
        <path d="M20 0.444458C8.95417 0.444458 0 9.39862 0 20.4445C0 24.1111 0.989584 27.5458 2.7125 30.5C3.10208 31.1681 3.84444 31.5556 4.61806 31.5556H35.3819C36.1556 31.5556 36.8979 31.1681 37.2875 30.5C39.0104 27.5458 40 24.1111 40 20.4445C40 9.39862 31.0458 0.444458 20 0.444458ZM20 4.8889C21.0215 4.8889 21.8458 5.59238 22.1056 6.53126C22.0285 6.68821 21.9222 6.82501 21.866 6.99446L21.2257 8.91599C20.8694 9.15835 20.4639 9.33335 20.0007 9.33335C18.7736 9.33335 17.7785 8.33821 17.7785 7.11112C17.7785 5.88404 18.7729 4.8889 20 4.8889ZM6.66667 24.8889C5.43958 24.8889 4.44444 23.8938 4.44444 22.6667C4.44444 21.4396 5.43958 20.4445 6.66667 20.4445C7.89375 20.4445 8.88889 21.4396 8.88889 22.6667C8.88889 23.8938 7.89375 24.8889 6.66667 24.8889ZM10 13.7778C8.77292 13.7778 7.77778 12.7827 7.77778 11.5556C7.77778 10.3285 8.77292 9.33335 10 9.33335C11.2271 9.33335 12.2222 10.3285 12.2222 11.5556C12.2222 12.7827 11.2271 13.7778 10 13.7778ZM27.1368 8.74932L22.8778 21.5271C23.8285 22.3424 24.4444 23.5375 24.4444 24.8889C24.4444 25.7028 24.2097 26.4549 23.8278 27.1111H16.1722C15.7903 26.4549 15.5556 25.7028 15.5556 24.8889C15.5556 22.532 17.3958 20.6229 19.7153 20.4729L23.975 7.69446C24.2646 6.82224 25.2063 6.34376 26.0833 6.64099C26.9563 6.93196 27.4271 7.8764 27.1368 8.74932ZM28.1549 12.7215L29.2326 9.4889C29.4736 9.39932 29.7278 9.33404 30 9.33404C31.2271 9.33404 32.2222 10.3292 32.2222 11.5563C32.2222 12.7833 31.2271 13.7785 30 13.7785C29.2097 13.7778 28.5493 13.3424 28.1549 12.7215ZM33.3333 24.8889C32.1063 24.8889 31.1111 23.8938 31.1111 22.6667C31.1111 21.4396 32.1063 20.4445 33.3333 20.4445C34.5604 20.4445 35.5556 21.4396 35.5556 22.6667C35.5556 23.8938 34.5604 24.8889 33.3333 24.8889Z"/>
    </symbol>
    <symbol id="sprite-medal">
        <path d="M17.4805 10.2148L12.0797 1.214C11.8576 0.843738 11.5434 0.537299 11.1677 0.324537C10.7921 0.111775 10.3677 -5.57342e-05 9.93591 -6.10352e-05H1.25229C0.240569 -6.10352e-05 -0.35162 1.13822 0.228069 1.96713L8.92106 14.3859C11.2429 12.2164 14.1961 10.7273 17.4805 10.2148ZM38.7477 -6.10352e-05H30.0641C29.186 -6.10352e-05 28.3719 0.460878 27.9203 1.214L22.5195 10.2148C25.8039 10.7273 28.7571 12.2164 31.0789 14.3851L39.7719 1.96713C40.3516 1.13822 39.7594 -6.10352e-05 38.7477 -6.10352e-05V-6.10352e-05ZM20 12.5C12.4062 12.5 6.24996 18.6562 6.24996 26.25C6.24996 33.8438 12.4062 40.0001 20 40.0001C27.5938 40.0001 33.75 33.8438 33.75 26.25C33.75 18.6562 27.5938 12.5 20 12.5ZM27.2281 24.7859L24.2649 27.6735L24.9656 31.7532C25.0906 32.4844 24.3203 33.043 23.6649 32.6977L20 30.7719L16.3359 32.6977C15.6797 33.0453 14.9101 32.4836 15.0351 31.7532L15.7359 27.6735L12.7726 24.7859C12.2398 24.2672 12.5344 23.3617 13.2687 23.2555L17.3648 22.6586L19.1953 18.9461C19.3602 18.6117 19.6789 18.4469 19.9984 18.4469C20.3195 18.4469 20.6406 18.6141 20.8055 18.9461L22.6359 22.6586L26.7321 23.2555C27.4664 23.3617 27.761 24.2672 27.2281 24.7859Z"/>
    </symbol>
    <symbol id="sprite-listCheck">
        <path d="M8.49111 18.9553L0.366101 10.8302C-0.122034 10.3421 -0.122034 9.55066 0.366101 9.06247L2.13383 7.2947C2.62196 6.80651 3.41347 6.80651 3.9016 7.2947L9.375 12.768L21.0984 1.04469C21.5865 0.556555 22.378 0.556555 22.8662 1.04469L24.6339 2.81247C25.122 3.3006 25.122 4.09206 24.6339 4.58024L10.2589 18.9553C9.7707 19.4434 8.97925 19.4434 8.49111 18.9553Z" fill="#9D4EDD"/>
    </symbol>
    <symbol id="sprite-clock">
        <path d="M25.75 0C11.9395 0 0.75 11.1895 0.75 25C0.75 38.8105 11.9395 50 25.75 50C39.5605 50 50.75 38.8105 50.75 25C50.75 11.1895 39.5605 0 25.75 0ZM25.75 45.1613C14.6109 45.1613 5.58871 36.1391 5.58871 25C5.58871 13.8609 14.6109 4.83871 25.75 4.83871C36.8891 4.83871 45.9113 13.8609 45.9113 25C45.9113 36.1391 36.8891 45.1613 25.75 45.1613ZM31.9798 34.6371L23.4214 28.4173C23.1089 28.1855 22.9274 27.8226 22.9274 27.4395V10.8871C22.9274 10.2218 23.4718 9.67742 24.1371 9.67742H27.3629C28.0282 9.67742 28.5726 10.2218 28.5726 10.8871V25.1714L35.3064 30.0706C35.8508 30.4637 35.9617 31.2198 35.5685 31.7641L33.6734 34.375C33.2802 34.9093 32.5242 35.0302 31.9798 34.6371Z"/>
    </symbol>
    <symbol id="sprite-copy">
        <path d="M46.0625 0C48.6514 0 50.75 2.09863 50.75 4.6875V32.8125C50.75 35.4014 48.6514 37.5 46.0625 37.5H17.9375C15.3486 37.5 13.25 35.4014 13.25 32.8125V4.6875C13.25 2.09863 15.3486 0 17.9375 0H46.0625ZM17.9375 40.625C13.6297 40.625 10.125 37.1203 10.125 32.8125V12.5H5.4375C2.84863 12.5 0.75 14.5986 0.75 17.1875V45.3125C0.75 47.9014 2.84863 50 5.4375 50H33.5625C36.1514 50 38.25 47.9014 38.25 45.3125V40.625H17.9375Z"/>
    </symbol>
    <symbol id="sprite-trophy">
        <path d="M47.9167 6H38.8889V2.25C38.8889 1.00312 37.9601 0 36.8056 0H13.1944C12.0399 0 11.1111 1.00312 11.1111 2.25V6H2.08333C0.928819 6 0 7.00312 0 8.25V13.5C0 16.8469 1.95312 20.2875 5.37326 22.9406C8.10764 25.0687 11.4323 26.4187 14.9219 26.85C17.6476 31.7344 20.8333 33.75 20.8333 33.75V40.5H16.6667C13.6024 40.5 11.1111 42.4406 11.1111 45.75V46.875C11.1111 47.4937 11.5799 48 12.1528 48H37.8472C38.4201 48 38.8889 47.4937 38.8889 46.875V45.75C38.8889 42.4406 36.3976 40.5 33.3333 40.5H29.1667V33.75C29.1667 33.75 32.3524 31.7344 35.0781 26.85C38.5764 26.4187 41.901 25.0687 44.6267 22.9406C48.0382 20.2875 50 16.8469 50 13.5V8.25C50 7.00312 49.0712 6 47.9167 6ZM8.61979 18.075C6.50174 16.425 5.55556 14.5875 5.55556 13.5V12H11.1285C11.2153 15.0562 11.6319 17.7375 12.2396 20.0812C10.9288 19.5937 9.70486 18.9187 8.61979 18.075ZM44.4444 13.5C44.4444 15.0094 42.908 16.8844 41.3802 18.075C40.2951 18.9187 39.0625 19.5937 37.7517 20.0812C38.3594 17.7375 38.776 15.0562 38.8628 12H44.4444V13.5Z"/>
    </symbol>
    <symbol id="sprite-alchemy">
        <path d="M49.5441 45.0339L36.4636 23.9958V7.14293H37.3565C38.8408 7.14293 40.035 5.94872 40.035 4.46433V2.6786C40.035 1.19421 38.8408 0 37.3565 0H14.1419C12.6576 0 11.4633 1.19421 11.4633 2.6786V4.46433C11.4633 5.94872 12.6576 7.14293 14.1419 7.14293H15.0348V23.9958L1.95432 45.0339C-1.3158 50.2907 2.45656 57.1434 8.66198 57.1434H42.8364C49.053 57.1434 52.8142 50.2795 49.5441 45.0339ZM16.1397 35.7146L21.5192 27.0538C21.9322 26.4735 22.1666 25.7592 22.1666 25.0002V7.14293H29.3095V25.0002C29.3095 25.7703 29.555 26.4735 29.9568 27.0538L35.3363 35.7146H16.1397Z" />
    </symbol>
    <symbol id="sprite-key">
        <path d="M30.1667 10.3126C30.1667 16.008 25.5497 20.625 19.8542 20.625C19.1968 20.625 18.5541 20.5628 17.9308 20.4452L16.5238 22.028C16.3919 22.1765 16.23 22.2953 16.0489 22.3766C15.8677 22.458 15.6714 22.5 15.4728 22.5H13.2917V24.8438C13.2917 25.6204 12.6622 26.25 11.8855 26.25H9.54175V28.5938C9.54175 29.3704 8.91216 30 8.1355 30H1.573C0.796338 30 0.166748 29.3704 0.166748 28.5938V24.02C0.166748 23.647 0.314932 23.2893 0.578604 23.0256L10.0592 13.545C9.72386 12.5282 9.54175 11.4417 9.54175 10.3125C9.54175 4.61707 14.1588 5.85943e-05 19.8542 5.59721e-10C25.5664 -5.85932e-05 30.1667 4.60025 30.1667 10.3126ZM19.8542 7.5C19.8542 9.05332 21.1134 10.3125 22.6667 10.3125C24.2201 10.3125 25.4792 9.05332 25.4792 7.5C25.4792 5.94668 24.2201 4.6875 22.6667 4.6875C21.1134 4.6875 19.8542 5.94668 19.8542 7.5Z"/>
    </symbol>
    <symbol id="sprite-layout">
        <path d="M27.278 20.6805C25.8103 21.8717 24.1943 22.859 22.4418 23.5545L25.628 29.0734L28.7891 30.4234C29.3639 30.6689 30.0131 30.2939 30.0881 29.6734L30.4994 26.2603L27.278 20.6805ZM29.7676 15.14C30.0524 14.6906 29.8784 14.0859 29.4131 13.8281L27.7684 12.9158C27.3302 12.6727 26.7952 12.8303 26.5227 13.251C24.114 16.9734 19.968 19.2497 15.5003 19.2497C14.0981 19.2497 12.7329 19.0007 11.4333 18.5741L15.3801 11.7375C15.4212 11.7387 15.4587 11.7498 15.4997 11.7498C15.5407 11.7498 15.5788 11.7387 15.6192 11.7375L18.6127 16.923C20.4426 16.398 22.1025 15.4142 23.4531 14.0566L20.4185 8.80026C20.8551 8.00164 21.1252 7.09931 21.1252 6.12491C21.1252 3.01832 18.6068 0.5 15.5003 0.5C12.3937 0.5 9.87534 3.01832 9.87534 6.12491C9.87534 7.09931 10.1455 8.00164 10.5814 8.80026L6.5795 15.7324C5.84416 15.0521 5.17561 14.2916 4.60609 13.4473C4.32543 13.0313 3.78755 12.8836 3.35337 13.135L1.72742 14.0765C1.26747 14.3426 1.10458 14.9496 1.39696 15.3931C2.30925 16.7783 3.42954 17.9835 4.67699 19.0271L0.500488 26.2609L0.91181 29.674C0.986809 30.2945 1.63602 30.6695 2.21081 30.424L5.3719 29.074L9.52027 21.8887C11.4064 22.6059 13.4272 22.9997 15.5003 22.9997C21.3039 22.9997 26.6845 20.0108 29.7676 15.14ZM15.5003 4.24994C16.5356 4.24994 17.3752 5.08958 17.3752 6.12491C17.3752 7.16025 16.5356 7.99988 15.5003 7.99988C14.4649 7.99988 13.6253 7.16025 13.6253 6.12491C13.6253 5.08958 14.4649 4.24994 15.5003 4.24994Z" />
    </symbol>
    <symbol id="sprite-browser">
        <path d="M8.78658 13.1724L4.16536 6.07124C7.04455 2.4904 11.3633 0.518514 15.7789 0.500368C18.3375 0.482222 20.9506 1.13548 23.3277 2.50854C25.9528 4.03282 27.9489 6.22245 29.2191 8.73872L16.8011 8.08546C13.2868 7.8798 9.94189 9.85773 8.78658 13.1724ZM10.7766 15.5012C10.7766 18.2957 13.0388 20.5579 15.8333 20.5579C18.6278 20.5579 20.8901 18.2957 20.8901 15.5012C20.8901 12.7067 18.6278 10.4445 15.8333 10.4445C13.0388 10.4445 10.7766 12.7006 10.7766 15.5012ZM29.824 10.1057L21.374 10.5412C23.6664 13.2208 23.7027 17.0859 21.7732 20.0498L14.9926 30.4778C17.8052 30.629 20.7026 30.0121 23.3277 28.4878C29.824 24.7376 32.4552 16.8742 29.824 10.1057ZM8.91965 18.3804L3.2762 7.28098C1.73378 9.63998 0.83252 12.4708 0.83252 15.5012C0.83252 23.0016 6.32475 29.2136 13.5046 30.3145L17.3576 22.7657C13.8736 23.419 10.5105 21.5076 8.91965 18.3804Z" />
    </symbol>
    <symbol id="sprite-arrowTop">
        <path d="M1.3399 11.4965L0.32295 10.5055C-0.10765 10.0859 -0.10765 9.40743 0.32295 8.9923L9.22355 0.314697C9.65415 -0.104899 10.3504 -0.104899 10.7765 0.314697L19.6771 8.98784C20.1077 9.40743 20.1077 10.0859 19.6771 10.5011L18.6601 11.492C18.2249 11.9161 17.5149 11.9072 17.0889 11.4742L11.8346 6.09977V18.9287C11.8346 19.5224 11.3445 20 10.7352 20H9.26935C8.6601 20 8.16995 19.5224 8.16995 18.9287V6.09977L2.91113 11.4786C2.48511 11.9161 1.77508 11.925 1.3399 11.4965Z" />
    </symbol>
    <symbol id="sprite-smile">
        <path d="M20.1915 24.6935C21.4415 22.8085 21.7137 20.9335 21.7742 19.0484C21.7238 17.1633 21.4415 15.2883 20.1915 13.4032C19.3851 12.1935 17.6613 12.254 16.8952 13.4032C15.6452 15.2883 15.373 17.1633 15.3125 19.0484C15.3629 20.9335 15.6452 22.8085 16.8952 24.6935C17.7117 25.9032 19.4355 25.8427 20.1915 24.6935ZM33.0948 24.6935C34.3448 22.8085 34.6169 20.9335 34.6774 19.0484C34.627 17.1633 34.3448 15.2883 33.0948 13.4032C32.2883 12.1935 30.5645 12.254 29.7984 13.4032C28.5484 15.2883 28.2762 17.1633 28.2157 19.0484C28.2661 20.9335 28.5484 22.8085 29.7984 24.6935C30.6149 25.9032 32.3387 25.8427 33.0948 24.6935ZM25 0.5C11.1895 0.5 0 11.6895 0 25.5C0 39.3105 11.1895 50.5 25 50.5C38.8105 50.5 50 39.3105 50 25.5C50 11.6895 38.8105 0.5 25 0.5ZM25 45.6613C13.881 45.6613 4.83871 36.6189 4.83871 25.5C4.83871 14.381 13.881 5.33871 25 5.33871C36.1189 5.33871 45.1613 14.381 45.1613 25.5C45.1613 36.6189 36.1189 45.6613 25 45.6613ZM35.6452 30.3992C33.0343 31.2359 29.1532 31.7198 25 31.7198C20.8468 31.7198 16.9758 31.2359 14.3548 30.3992C13.3569 30.0867 12.3992 30.9335 12.5706 31.9415C13.3669 36.6996 19.7581 40.006 25 40.006C30.2419 40.006 36.623 36.6895 37.4294 31.9415C37.5907 30.9536 36.6532 30.0867 35.6452 30.3992Z"/>
    </symbol>
    <symbol id="sprite-projects">
        <path d="M30 25.5H20C18.6195 25.5 17.5 26.6195 17.5 28V38C17.5 39.3805 18.6195 40.5 20 40.5H30C31.3805 40.5 32.5 39.3805 32.5 38V28C32.5 26.6195 31.3805 25.5 30 25.5ZM15 3C15 1.61953 13.8805 0.5 12.5 0.5H2.5C1.11953 0.5 0 1.61953 0 3V13C0 14.3805 1.11953 15.5 2.5 15.5H9.97812L15.6938 25.5031C16.5609 24.0141 18.1562 23 20 23H20.0219L15 14.2117V10.5H32.5V5.5H15V3ZM47.5 0.5H37.5C36.1195 0.5 35 1.61953 35 3V13C35 14.3805 36.1195 15.5 37.5 15.5H47.5C48.8805 15.5 50 14.3805 50 13V3C50 1.61953 48.8805 0.5 47.5 0.5Z"/>
    </symbol>
    <symbol id="sprite-calendary">
        <path d="M14.4531 28.125H10.5469C9.90234 28.125 9.375 27.5977 9.375 26.9531V23.0469C9.375 22.4023 9.90234 21.875 10.5469 21.875H14.4531C15.0977 21.875 15.625 22.4023 15.625 23.0469V26.9531C15.625 27.5977 15.0977 28.125 14.4531 28.125ZM25 26.9531V23.0469C25 22.4023 24.4727 21.875 23.8281 21.875H19.9219C19.2773 21.875 18.75 22.4023 18.75 23.0469V26.9531C18.75 27.5977 19.2773 28.125 19.9219 28.125H23.8281C24.4727 28.125 25 27.5977 25 26.9531ZM34.375 26.9531V23.0469C34.375 22.4023 33.8477 21.875 33.2031 21.875H29.2969C28.6523 21.875 28.125 22.4023 28.125 23.0469V26.9531C28.125 27.5977 28.6523 28.125 29.2969 28.125H33.2031C33.8477 28.125 34.375 27.5977 34.375 26.9531ZM25 36.3281V32.4219C25 31.7773 24.4727 31.25 23.8281 31.25H19.9219C19.2773 31.25 18.75 31.7773 18.75 32.4219V36.3281C18.75 36.9727 19.2773 37.5 19.9219 37.5H23.8281C24.4727 37.5 25 36.9727 25 36.3281ZM15.625 36.3281V32.4219C15.625 31.7773 15.0977 31.25 14.4531 31.25H10.5469C9.90234 31.25 9.375 31.7773 9.375 32.4219V36.3281C9.375 36.9727 9.90234 37.5 10.5469 37.5H14.4531C15.0977 37.5 15.625 36.9727 15.625 36.3281ZM34.375 36.3281V32.4219C34.375 31.7773 33.8477 31.25 33.2031 31.25H29.2969C28.6523 31.25 28.125 31.7773 28.125 32.4219V36.3281C28.125 36.9727 28.6523 37.5 29.2969 37.5H33.2031C33.8477 37.5 34.375 36.9727 34.375 36.3281ZM43.75 10.9375V45.3125C43.75 47.9004 41.6504 50 39.0625 50H4.6875C2.09961 50 0 47.9004 0 45.3125V10.9375C0 8.34961 2.09961 6.25 4.6875 6.25H9.375V1.17188C9.375 0.527344 9.90234 0 10.5469 0H14.4531C15.0977 0 15.625 0.527344 15.625 1.17188V6.25H28.125V1.17188C28.125 0.527344 28.6523 0 29.2969 0H33.2031C33.8477 0 34.375 0.527344 34.375 1.17188V6.25H39.0625C41.6504 6.25 43.75 8.34961 43.75 10.9375ZM39.0625 44.7266V15.625H4.6875V44.7266C4.6875 45.0488 4.95117 45.3125 5.27344 45.3125H38.4766C38.7988 45.3125 39.0625 45.0488 39.0625 44.7266Z"/>
    </symbol>
</svg>
