<svg width="31" height="31" viewBox="0 0 31 31" fill="none" xmlns="http://www.w3.org/2000/svg">
<path d="M9.72969 16.75H11.8953L10.8125 12.5922L9.72969 16.75ZM21.125 15.5C20.3498 15.5 19.7188 16.3414 19.7188 17.375C19.7188 18.4086 20.3498 19.25 21.125 19.25C21.9002 19.25 22.5312 18.4086 22.5312 17.375C22.5312 16.3414 21.9002 15.5 21.125 15.5ZM27.6875 0.5H3.3125C1.75977 0.5 0.5 2.17969 0.5 4.25V26.75C0.5 28.8203 1.75977 30.5 3.3125 30.5H27.6875C29.2402 30.5 30.5 28.8203 30.5 26.75V4.25C30.5 2.17969 29.2402 0.5 27.6875 0.5ZM15.1824 23H14.1898C13.7908 23 13.4352 22.6625 13.3039 22.1602L12.8721 20.5H8.75352L8.32109 22.1602C8.25717 22.4055 8.13751 22.6182 7.97874 22.7688C7.81996 22.9193 7.62997 23.0001 7.43516 23H6.44258C5.79746 23 5.34512 22.1523 5.55664 21.3398L8.70312 9.25937C8.79899 8.89149 8.97841 8.57255 9.21645 8.34686C9.4545 8.12117 9.73935 7.99993 10.0314 8H11.5936C11.8857 7.99993 12.1707 8.12126 12.4087 8.3471C12.6468 8.57295 12.8261 8.89209 12.9219 9.26016L16.0678 21.3398C16.2793 22.1523 15.827 23 15.1824 23V23ZM25.3438 21.75C25.3438 22.4406 24.9242 23 24.4062 23H23.4688C23.1846 23 22.9391 22.8227 22.7668 22.5563C22.2617 22.8422 21.7068 23 21.125 23C18.7988 23 16.9062 20.4766 16.9062 17.375C16.9062 14.2734 18.7988 11.75 21.125 11.75C21.6207 11.75 22.0895 11.8852 22.5312 12.0953V9.25C22.5312 8.55937 22.9508 8 23.4688 8H24.4062C24.9242 8 25.3438 8.55937 25.3438 9.25V21.75Z" fill="black"/>
</svg>
