<svg width="51" height="58" viewBox="0 0 51 58" fill="none" xmlns="http://www.w3.org/2000/svg">
<path d="M49.5441 45.0339L36.4636 23.9958V7.14293H37.3565C38.8408 7.14293 40.035 5.94872 40.035 4.46433V2.6786C40.035 1.19421 38.8408 0 37.3565 0H14.1419C12.6576 0 11.4633 1.19421 11.4633 2.6786V4.46433C11.4633 5.94872 12.6576 7.14293 14.1419 7.14293H15.0348V23.9958L1.95432 45.0339C-1.3158 50.2907 2.45656 57.1434 8.66198 57.1434H42.8364C49.053 57.1434 52.8142 50.2795 49.5441 45.0339ZM16.1397 35.7146L21.5192 27.0538C21.9322 26.4735 22.1666 25.7592 22.1666 25.0002V7.14293H29.3095V25.0002C29.3095 25.7703 29.555 26.4735 29.9568 27.0538L35.3363 35.7146H16.1397Z" fill="#9D4EDD"/>
</svg>
