<svg width="20" height="20" viewBox="0 0 20 20" fill="none" xmlns="http://www.w3.org/2000/svg">
<path d="M1.3399 11.4965L0.32295 10.5055C-0.10765 10.0859 -0.10765 9.40743 0.32295 8.9923L9.22355 0.314697C9.65415 -0.104899 10.3504 -0.104899 10.7765 0.314697L19.6771 8.98784C20.1077 9.40743 20.1077 10.0859 19.6771 10.5011L18.6601 11.492C18.2249 11.9161 17.5149 11.9072 17.0889 11.4742L11.8346 6.09977V18.9287C11.8346 19.5224 11.3445 20 10.7352 20H9.26935C8.6601 20 8.16995 19.5224 8.16995 18.9287V6.09977L2.91113 11.4786C2.48511 11.9161 1.77508 11.925 1.3399 11.4965Z" fill="black"/>
</svg>
