<svg width="31" height="31" viewBox="0 0 31 31" fill="none" xmlns="http://www.w3.org/2000/svg">
<path d="M8.78658 13.1724L4.16536 6.07124C7.04455 2.4904 11.3633 0.518514 15.7789 0.500368C18.3375 0.482222 20.9506 1.13548 23.3277 2.50854C25.9528 4.03282 27.9489 6.22245 29.2191 8.73872L16.8011 8.08546C13.2868 7.8798 9.94189 9.85773 8.78658 13.1724ZM10.7766 15.5012C10.7766 18.2957 13.0388 20.5579 15.8333 20.5579C18.6278 20.5579 20.8901 18.2957 20.8901 15.5012C20.8901 12.7067 18.6278 10.4445 15.8333 10.4445C13.0388 10.4445 10.7766 12.7006 10.7766 15.5012ZM29.824 10.1057L21.374 10.5412C23.6664 13.2208 23.7027 17.0859 21.7732 20.0498L14.9926 30.4778C17.8052 30.629 20.7026 30.0121 23.3277 28.4878C29.824 24.7376 32.4552 16.8742 29.824 10.1057ZM8.91965 18.3804L3.2762 7.28098C1.73378 9.63998 0.83252 12.4708 0.83252 15.5012C0.83252 23.0016 6.32475 29.2136 13.5046 30.3145L17.3576 22.7657C13.8736 23.419 10.5105 21.5076 8.91965 18.3804Z" fill="black"/>
</svg>
