<svg width="44" height="50" viewBox="0 0 44 50" fill="none" xmlns="http://www.w3.org/2000/svg">
<path d="M14.4531 28.125H10.5469C9.90234 28.125 9.375 27.5977 9.375 26.9531V23.0469C9.375 22.4023 9.90234 21.875 10.5469 21.875H14.4531C15.0977 21.875 15.625 22.4023 15.625 23.0469V26.9531C15.625 27.5977 15.0977 28.125 14.4531 28.125ZM25 26.9531V23.0469C25 22.4023 24.4727 21.875 23.8281 21.875H19.9219C19.2773 21.875 18.75 22.4023 18.75 23.0469V26.9531C18.75 27.5977 19.2773 28.125 19.9219 28.125H23.8281C24.4727 28.125 25 27.5977 25 26.9531ZM34.375 26.9531V23.0469C34.375 22.4023 33.8477 21.875 33.2031 21.875H29.2969C28.6523 21.875 28.125 22.4023 28.125 23.0469V26.9531C28.125 27.5977 28.6523 28.125 29.2969 28.125H33.2031C33.8477 28.125 34.375 27.5977 34.375 26.9531ZM25 36.3281V32.4219C25 31.7773 24.4727 31.25 23.8281 31.25H19.9219C19.2773 31.25 18.75 31.7773 18.75 32.4219V36.3281C18.75 36.9727 19.2773 37.5 19.9219 37.5H23.8281C24.4727 37.5 25 36.9727 25 36.3281ZM15.625 36.3281V32.4219C15.625 31.7773 15.0977 31.25 14.4531 31.25H10.5469C9.90234 31.25 9.375 31.7773 9.375 32.4219V36.3281C9.375 36.9727 9.90234 37.5 10.5469 37.5H14.4531C15.0977 37.5 15.625 36.9727 15.625 36.3281ZM34.375 36.3281V32.4219C34.375 31.7773 33.8477 31.25 33.2031 31.25H29.2969C28.6523 31.25 28.125 31.7773 28.125 32.4219V36.3281C28.125 36.9727 28.6523 37.5 29.2969 37.5H33.2031C33.8477 37.5 34.375 36.9727 34.375 36.3281ZM43.75 10.9375V45.3125C43.75 47.9004 41.6504 50 39.0625 50H4.6875C2.09961 50 0 47.9004 0 45.3125V10.9375C0 8.34961 2.09961 6.25 4.6875 6.25H9.375V1.17188C9.375 0.527344 9.90234 0 10.5469 0H14.4531C15.0977 0 15.625 0.527344 15.625 1.17188V6.25H28.125V1.17188C28.125 0.527344 28.6523 0 29.2969 0H33.2031C33.8477 0 34.375 0.527344 34.375 1.17188V6.25H39.0625C41.6504 6.25 43.75 8.34961 43.75 10.9375ZM39.0625 44.7266V15.625H4.6875V44.7266C4.6875 45.0488 4.95117 45.3125 5.27344 45.3125H38.4766C38.7988 45.3125 39.0625 45.0488 39.0625 44.7266Z" fill="#9D4EDD"/>
</svg>
