<svg width="31" height="30" viewBox="0 0 31 30" fill="none" xmlns="http://www.w3.org/2000/svg">
<path d="M6.58084 14.2995L14.4662 6.41531L11.8811 3.8302L8.26713 7.44419C8.22404 7.48737 8.17284 7.52163 8.11649 7.545C8.06014 7.56838 7.99973 7.58041 7.93872 7.58041C7.87771 7.58041 7.8173 7.56838 7.76095 7.545C7.7046 7.52163 7.65341 7.48737 7.61031 7.44419L6.95349 6.78737C6.77185 6.60573 6.77185 6.3116 6.95349 6.13055L10.5675 2.51655L8.59642 0.544911C7.87046 -0.181051 6.69392 -0.181051 5.96796 0.544911L0.711614 5.80126C-0.0137626 6.52722 -0.0143485 7.70376 0.711614 8.42972L6.58084 14.2995ZM29.3423 7.45591C30.4415 6.35671 30.4409 4.57491 29.3423 3.47571L26.691 0.824398C25.5918 -0.274799 23.8094 -0.274799 22.7096 0.824398L20.0132 3.52024L26.6459 10.1529L29.3423 7.45591ZM18.6872 4.84678L1.28524 22.2464L0.186038 28.5416C0.0377989 29.3906 0.777238 30.1301 1.62683 29.9807L7.92261 28.8768L25.3199 11.4789L18.6872 4.84678ZM29.6224 21.5709L27.6513 19.5998L24.0373 23.2138C23.8557 23.3954 23.5616 23.3954 23.3805 23.2138L22.7237 22.557C22.5426 22.3753 22.5426 22.0812 22.7237 21.9002L26.3377 18.2862L23.7514 15.6999L15.866 23.5841L21.7376 29.4551C22.4635 30.1811 23.6401 30.1811 24.366 29.4551L29.6224 24.1993C30.3483 23.4734 30.3483 22.2968 29.6224 21.5709Z" fill="black"/>
</svg>
