<svg width="51" height="50" viewBox="0 0 51 50" fill="none" xmlns="http://www.w3.org/2000/svg">
<path d="M25.75 0C11.9395 0 0.75 11.1895 0.75 25C0.75 38.8105 11.9395 50 25.75 50C39.5605 50 50.75 38.8105 50.75 25C50.75 11.1895 39.5605 0 25.75 0ZM25.75 45.1613C14.6109 45.1613 5.58871 36.1391 5.58871 25C5.58871 13.8609 14.6109 4.83871 25.75 4.83871C36.8891 4.83871 45.9113 13.8609 45.9113 25C45.9113 36.1391 36.8891 45.1613 25.75 45.1613ZM31.9798 34.6371L23.4214 28.4173C23.1089 28.1855 22.9274 27.8226 22.9274 27.4395V10.8871C22.9274 10.2218 23.4718 9.67742 24.1371 9.67742H27.3629C28.0282 9.67742 28.5726 10.2218 28.5726 10.8871V25.1714L35.3064 30.0706C35.8508 30.4637 35.9617 31.2198 35.5685 31.7641L33.6734 34.375C33.2802 34.9093 32.5242 35.0302 31.9798 34.6371Z" fill="#9D4EDD"/>
</svg>
