<svg width="20" height="20" viewBox="0 0 20 20" fill="none" xmlns="http://www.w3.org/2000/svg">
<path fill-rule="evenodd" clip-rule="evenodd" d="M17.3173 2.68252C17.3755 2.74058 17.4217 2.80955 17.4532 2.88548C17.4847 2.96141 17.5009 3.04281 17.5009 3.12502C17.5009 3.20723 17.4847 3.28863 17.4532 3.36456C17.4217 3.44049 17.3755 3.50946 17.3173 3.56752L3.56731 17.3175C3.44995 17.4349 3.29078 17.5008 3.12481 17.5008C2.95884 17.5008 2.79967 17.4349 2.68231 17.3175C2.56495 17.2002 2.49902 17.041 2.49902 16.875C2.49902 16.709 2.56495 16.5499 2.68231 16.4325L16.4323 2.68252C16.4904 2.62431 16.5593 2.57814 16.6353 2.54663C16.7112 2.51512 16.7926 2.4989 16.8748 2.4989C16.957 2.4989 17.0384 2.51512 17.1144 2.54663C17.1903 2.57814 17.2593 2.62431 17.3173 2.68252Z" fill="black"/>
<path fill-rule="evenodd" clip-rule="evenodd" d="M2.68264 2.68252C2.62444 2.74058 2.57826 2.80955 2.54675 2.88548C2.51524 2.96141 2.49902 3.04281 2.49902 3.12502C2.49902 3.20723 2.51524 3.28863 2.54675 3.36456C2.57826 3.44049 2.62444 3.50946 2.68264 3.56752L16.4326 17.3175C16.55 17.4349 16.7092 17.5008 16.8751 17.5008C17.0411 17.5008 17.2003 17.4349 17.3176 17.3175C17.435 17.2002 17.5009 17.041 17.5009 16.875C17.5009 16.709 17.435 16.5499 17.3176 16.4325L3.56764 2.68252C3.50958 2.62431 3.44061 2.57814 3.36468 2.54663C3.28875 2.51512 3.20735 2.4989 3.12514 2.4989C3.04293 2.4989 2.96153 2.51512 2.8856 2.54663C2.80967 2.57814 2.7407 2.62431 2.68264 2.68252Z" fill="black"/>
</svg>
