<svg width="51" height="50" viewBox="0 0 51 50" fill="none" xmlns="http://www.w3.org/2000/svg">
<path d="M46.0625 0C48.6514 0 50.75 2.09863 50.75 4.6875V32.8125C50.75 35.4014 48.6514 37.5 46.0625 37.5H17.9375C15.3486 37.5 13.25 35.4014 13.25 32.8125V4.6875C13.25 2.09863 15.3486 0 17.9375 0H46.0625ZM17.9375 40.625C13.6297 40.625 10.125 37.1203 10.125 32.8125V12.5H5.4375C2.84863 12.5 0.75 14.5986 0.75 17.1875V45.3125C0.75 47.9014 2.84863 50 5.4375 50H33.5625C36.1514 50 38.25 47.9014 38.25 45.3125V40.625H17.9375Z" fill="#9D4EDD"/>
</svg>
