<svg width="40" height="40" viewBox="0 0 40 40" fill="none" xmlns="http://www.w3.org/2000/svg">
<path d="M33.9578 13.1023L26.9141 6.04375C26.4485 5.57702 25.8166 5.31426 25.1574 5.31323C24.4981 5.31221 23.8655 5.573 23.3984 6.03828L23.393 6.04375L17.5 11.9438V33.125L33.9578 16.6328C34.4251 16.1642 34.6875 15.5294 34.6875 14.8676C34.6875 14.2058 34.4251 13.571 33.9578 13.1023ZM37.5 25H29.1477L14.5844 39.5711C14.4234 39.7328 14.2328 39.8508 14.0625 40H37.5C38.163 40 38.7989 39.7366 39.2678 39.2678C39.7366 38.7989 40 38.163 40 37.5V27.5C40 26.837 39.7366 26.2011 39.2678 25.7322C38.7989 25.2634 38.163 25 37.5 25ZM15 2.5C15 1.83696 14.7366 1.20107 14.2678 0.732233C13.7989 0.263392 13.163 0 12.5 0L2.5 0C1.83696 0 1.20107 0.263392 0.732233 0.732233C0.263392 1.20107 0 1.83696 0 2.5L0 32.5C0 34.4891 0.790176 36.3968 2.1967 37.8033C3.60322 39.2098 5.51088 40 7.5 40C9.48912 40 11.3968 39.2098 12.8033 37.8033C14.2098 36.3968 15 34.4891 15 32.5V2.5ZM7.5 34.375C7.12916 34.375 6.76665 34.265 6.45831 34.059C6.14996 33.853 5.90964 33.5601 5.76773 33.2175C5.62581 32.8749 5.58868 32.4979 5.66103 32.1342C5.73337 31.7705 5.91195 31.4364 6.17417 31.1742C6.4364 30.912 6.77049 30.7334 7.13421 30.661C7.49792 30.5887 7.87492 30.6258 8.21753 30.7677C8.56014 30.9096 8.85298 31.15 9.05901 31.4583C9.26503 31.7666 9.375 32.1292 9.375 32.5C9.375 32.9973 9.17746 33.4742 8.82583 33.8258C8.47419 34.1775 7.99728 34.375 7.5 34.375ZM10 20H5V15H10V20ZM10 10H5V5H10V10Z" fill="#9D4EDD"/>
</svg>
