<svg width="50" height="51" viewBox="0 0 50 51" fill="none" xmlns="http://www.w3.org/2000/svg">
<rect y="0.5" width="50" height="50" rx="4" fill="#9D4EDD"/>
<path d="M37.0264 22.3164C37.2168 22.165 37.5 22.3066 37.5 22.5459V32.5312C37.5 33.8252 36.4502 34.875 35.1562 34.875H14.8438C13.5498 34.875 12.5 33.8252 12.5 32.5312V22.5508C12.5 22.3066 12.7783 22.1699 12.9736 22.3213C14.0674 23.1709 15.5176 24.25 20.498 27.8682C21.5283 28.6201 23.2666 30.2021 25 30.1924C26.7432 30.207 28.5156 28.5908 29.5068 27.8682C34.4873 24.25 35.9326 23.166 37.0264 22.3164ZM25 28.625C26.1328 28.6445 27.7637 27.1992 28.584 26.6035C35.0635 21.9014 35.5566 21.4912 37.0508 20.3193C37.334 20.0996 37.5 19.7578 37.5 19.3965V18.4687C37.5 17.1748 36.4502 16.125 35.1562 16.125H14.8438C13.5498 16.125 12.5 17.1748 12.5 18.4687V19.3965C12.5 19.7578 12.666 20.0947 12.9492 20.3193C14.4434 21.4863 14.9365 21.9014 21.416 26.6035C22.2363 27.1992 23.8672 28.6445 25 28.625Z" fill="black"/>
</svg>
