<svg width="20" height="21" viewBox="0 0 20 21" fill="none" xmlns="http://www.w3.org/2000/svg">
<path d="M10 0.0537109C7.28625 0.0537109 6.945 0.0662109 5.87875 0.113711C4.8125 0.163711 4.08625 0.331211 3.45 0.578711C2.78262 0.829735 2.17811 1.22349 1.67875 1.73246C1.1701 2.23208 0.776384 2.83651 0.525 3.50371C0.2775 4.13871 0.10875 4.86621 0.06 5.92871C0.0125 6.99746 0 7.33746 0 10.055C0 12.77 0.0125 13.11 0.06 14.1762C0.11 15.2412 0.2775 15.9675 0.525 16.6037C0.78125 17.2612 1.1225 17.8187 1.67875 18.375C2.23375 18.9312 2.79125 19.2737 3.44875 19.5287C4.08625 19.7762 4.81125 19.945 5.87625 19.9937C6.94375 20.0412 7.28375 20.0537 10 20.0537C12.7163 20.0537 13.055 20.0412 14.1225 19.9937C15.1863 19.9437 15.915 19.7762 16.5513 19.5287C17.2182 19.2776 17.8223 18.8838 18.3212 18.375C18.8775 17.8187 19.2188 17.2612 19.475 16.6037C19.7213 15.9675 19.89 15.2412 19.94 14.1762C19.9875 13.11 20 12.77 20 10.0537C20 7.33746 19.9875 6.99746 19.94 5.92996C19.89 4.86621 19.7213 4.13871 19.475 3.50371C19.2237 2.83649 18.8299 2.23206 18.3212 1.73246C17.822 1.22331 17.2175 0.829518 16.55 0.578711C15.9125 0.331211 15.185 0.162461 14.1213 0.113711C13.0538 0.0662109 12.715 0.0537109 9.9975 0.0537109H10.0013H10ZM9.10375 1.85621H10.0013C12.6713 1.85621 12.9875 1.86496 14.0413 1.91371C15.0162 1.95746 15.5462 2.12121 15.8988 2.25746C16.365 2.43871 16.6987 2.65621 17.0487 3.00621C17.3988 3.35621 17.615 3.68871 17.7963 4.15621C17.9338 4.50746 18.0963 5.03746 18.14 6.01246C18.1887 7.06621 18.1987 7.38246 18.1987 10.0512C18.1987 12.72 18.1887 13.0375 18.14 14.0912C18.0963 15.0662 17.9325 15.595 17.7963 15.9475C17.6359 16.3817 17.38 16.7743 17.0475 17.0962C16.6975 17.4462 16.365 17.6625 15.8975 17.8437C15.5475 17.9812 15.0175 18.1437 14.0413 18.1887C12.9875 18.2362 12.6713 18.2475 10.0013 18.2475C7.33125 18.2475 7.01375 18.2362 5.96 18.1887C4.985 18.1437 4.45625 17.9812 4.10375 17.8437C3.66937 17.6836 3.27641 17.4282 2.95375 17.0962C2.62094 16.7738 2.36465 16.3808 2.20375 15.9462C2.0675 15.595 1.90375 15.065 1.86 14.09C1.8125 13.0362 1.8025 12.72 1.8025 10.0487C1.8025 7.37871 1.8125 7.06371 1.86 6.00996C1.905 5.03496 2.0675 4.50496 2.205 4.15246C2.38625 3.68621 2.60375 3.35246 2.95375 3.00246C3.30375 2.65246 3.63625 2.43621 4.10375 2.25496C4.45625 2.11746 4.985 1.95496 5.96 1.90996C6.8825 1.86746 7.24 1.85496 9.10375 1.85371V1.85621ZM15.3387 3.51621C15.1812 3.51621 15.0251 3.54725 14.8795 3.60756C14.7339 3.66786 14.6017 3.75625 14.4902 3.86768C14.3788 3.97911 14.2904 4.1114 14.2301 4.25699C14.1698 4.40258 14.1388 4.55862 14.1388 4.71621C14.1388 4.8738 14.1698 5.02984 14.2301 5.17543C14.2904 5.32102 14.3788 5.45331 14.4902 5.56474C14.6017 5.67617 14.7339 5.76456 14.8795 5.82487C15.0251 5.88517 15.1812 5.91621 15.3387 5.91621C15.657 5.91621 15.9622 5.78978 16.1873 5.56474C16.4123 5.3397 16.5387 5.03447 16.5387 4.71621C16.5387 4.39795 16.4123 4.09273 16.1873 3.86768C15.9622 3.64264 15.657 3.51621 15.3387 3.51621ZM10.0013 4.91871C9.32009 4.90808 8.64362 5.03307 8.01122 5.28639C7.37883 5.53971 6.80314 5.9163 6.31769 6.39424C5.83223 6.87218 5.4467 7.44192 5.18355 8.07029C4.9204 8.69865 4.78488 9.37309 4.78488 10.0543C4.78488 10.7356 4.9204 11.41 5.18355 12.0384C5.4467 12.6668 5.83223 13.2365 6.31769 13.7144C6.80314 14.1924 7.37883 14.569 8.01122 14.8223C8.64362 15.0756 9.32009 15.2006 10.0013 15.19C11.3494 15.1689 12.6353 14.6186 13.5812 13.6578C14.5272 12.6969 15.0574 11.4027 15.0574 10.0543C15.0574 8.706 14.5272 7.41173 13.5812 6.4509C12.6353 5.49007 11.3494 4.93974 10.0013 4.91871ZM10.0013 6.71996C10.8854 6.71996 11.7334 7.07119 12.3586 7.69639C12.9838 8.32159 13.335 9.16955 13.335 10.0537C13.335 10.9379 12.9838 11.7858 12.3586 12.411C11.7334 13.0362 10.8854 13.3875 10.0013 13.3875C9.11709 13.3875 8.26913 13.0362 7.64393 12.411C7.01873 11.7858 6.6675 10.9379 6.6675 10.0537C6.6675 9.16955 7.01873 8.32159 7.64393 7.69639C8.26913 7.07119 9.11709 6.71996 10.0013 6.71996Z" fill="black"/>
</svg>
