<svg width="31" height="30" viewBox="0 0 31 30" fill="none" xmlns="http://www.w3.org/2000/svg">
<path d="M30.1667 10.3126C30.1667 16.008 25.5497 20.625 19.8542 20.625C19.1968 20.625 18.5541 20.5628 17.9308 20.4452L16.5238 22.028C16.3919 22.1765 16.23 22.2953 16.0489 22.3766C15.8677 22.458 15.6714 22.5 15.4728 22.5H13.2917V24.8438C13.2917 25.6204 12.6622 26.25 11.8855 26.25H9.54175V28.5938C9.54175 29.3704 8.91216 30 8.1355 30H1.573C0.796338 30 0.166748 29.3704 0.166748 28.5938V24.02C0.166748 23.647 0.314932 23.2893 0.578604 23.0256L10.0592 13.545C9.72386 12.5282 9.54175 11.4417 9.54175 10.3125C9.54175 4.61707 14.1588 5.85943e-05 19.8542 5.59721e-10C25.5664 -5.85932e-05 30.1667 4.60025 30.1667 10.3126ZM19.8542 7.5C19.8542 9.05332 21.1134 10.3125 22.6667 10.3125C24.2201 10.3125 25.4792 9.05332 25.4792 7.5C25.4792 5.94668 24.2201 4.6875 22.6667 4.6875C21.1134 4.6875 19.8542 5.94668 19.8542 7.5Z" fill="black"/>
</svg>
