<svg width="31" height="31" viewBox="0 0 31 31" fill="none" xmlns="http://www.w3.org/2000/svg">
<path d="M27.278 20.6805C25.8103 21.8717 24.1943 22.859 22.4418 23.5545L25.628 29.0734L28.7891 30.4234C29.3639 30.6689 30.0131 30.2939 30.0881 29.6734L30.4994 26.2603L27.278 20.6805ZM29.7676 15.14C30.0524 14.6906 29.8784 14.0859 29.4131 13.8281L27.7684 12.9158C27.3302 12.6727 26.7952 12.8303 26.5227 13.251C24.114 16.9734 19.968 19.2497 15.5003 19.2497C14.0981 19.2497 12.7329 19.0007 11.4333 18.5741L15.3801 11.7375C15.4212 11.7387 15.4587 11.7498 15.4997 11.7498C15.5407 11.7498 15.5788 11.7387 15.6192 11.7375L18.6127 16.923C20.4426 16.398 22.1025 15.4142 23.4531 14.0566L20.4185 8.80026C20.8551 8.00164 21.1252 7.09931 21.1252 6.12491C21.1252 3.01832 18.6068 0.5 15.5003 0.5C12.3937 0.5 9.87534 3.01832 9.87534 6.12491C9.87534 7.09931 10.1455 8.00164 10.5814 8.80026L6.5795 15.7324C5.84416 15.0521 5.17561 14.2916 4.60609 13.4473C4.32543 13.0313 3.78755 12.8836 3.35337 13.135L1.72742 14.0765C1.26747 14.3426 1.10458 14.9496 1.39696 15.3931C2.30925 16.7783 3.42954 17.9835 4.67699 19.0271L0.500488 26.2609L0.91181 29.674C0.986809 30.2945 1.63602 30.6695 2.21081 30.424L5.3719 29.074L9.52027 21.8887C11.4064 22.6059 13.4272 22.9997 15.5003 22.9997C21.3039 22.9997 26.6845 20.0108 29.7676 15.14ZM15.5003 4.24994C16.5356 4.24994 17.3752 5.08958 17.3752 6.12491C17.3752 7.16025 16.5356 7.99988 15.5003 7.99988C14.4649 7.99988 13.6253 7.16025 13.6253 6.12491C13.6253 5.08958 14.4649 4.24994 15.5003 4.24994Z" fill="black"/>
</svg>
