<svg width="31" height="30" viewBox="0 0 31 30" fill="none" xmlns="http://www.w3.org/2000/svg">
<path d="M15.834 0C7.54969 0 0.833984 6.71571 0.833984 15C0.833984 23.2843 7.54969 30 15.834 30C24.1183 30 30.834 23.2843 30.834 15C30.834 6.71571 24.1183 0 15.834 0ZM26.3398 7.23139L22.5052 11.066C21.8406 9.94349 20.8921 8.99431 19.768 8.32881L23.6026 4.49419C24.6445 5.26723 25.5668 6.18953 26.3398 7.23139ZM15.834 20.8065C12.6272 20.8065 10.0275 18.2068 10.0275 15C10.0275 11.7932 12.6272 9.19355 15.834 9.19355C19.0408 9.19355 21.6404 11.7932 21.6404 15C21.6404 18.2068 19.0408 20.8065 15.834 20.8065ZM8.06538 4.49419L11.9 8.32881C10.7775 8.99335 9.8283 9.94191 9.1628 11.066L5.32818 7.23139C6.1012 6.18952 7.0235 5.26721 8.06538 4.49419ZM5.32818 22.7686L9.1628 18.934C9.82733 20.0565 10.7759 21.0057 11.9 21.6712L8.06538 25.5058C7.02351 24.7328 6.10121 23.8105 5.32818 22.7686ZM23.6026 25.5058L19.768 21.6712C20.8905 21.0067 21.8397 20.0581 22.5052 18.934L26.3398 22.7686C25.5668 23.8105 24.6445 24.7328 23.6026 25.5058Z" fill="black"/>
</svg>
