<svg width="50" height="51" viewBox="0 0 50 51" fill="none" xmlns="http://www.w3.org/2000/svg">
<rect y="0.5" width="50" height="50" rx="4" fill="#9D4EDD"/>
<path d="M24.0365 37.4956C16.9419 27.2105 15.625 26.1549 15.625 22.375C15.625 17.1973 19.8223 13 25 13C30.1777 13 34.375 17.1973 34.375 22.375C34.375 26.1549 33.0581 27.2105 25.9635 37.4956C25.4979 38.1682 24.502 38.1681 24.0365 37.4956ZM25 26.2812C27.1574 26.2812 28.9062 24.5324 28.9062 22.375C28.9062 20.2176 27.1574 18.4687 25 18.4687C22.8426 18.4687 21.0937 20.2176 21.0937 22.375C21.0937 24.5324 22.8426 26.2812 25 26.2812Z" fill="black"/>
</svg>
