<svg width="40" height="40" viewBox="0 0 40 40" fill="none" xmlns="http://www.w3.org/2000/svg">
<path d="M17.4805 10.2148L12.0797 1.214C11.8576 0.843738 11.5434 0.537299 11.1677 0.324537C10.7921 0.111775 10.3677 -5.57342e-05 9.93591 -6.10352e-05H1.25229C0.240569 -6.10352e-05 -0.35162 1.13822 0.228069 1.96713L8.92106 14.3859C11.2429 12.2164 14.1961 10.7273 17.4805 10.2148ZM38.7477 -6.10352e-05H30.0641C29.186 -6.10352e-05 28.3719 0.460878 27.9203 1.214L22.5195 10.2148C25.8039 10.7273 28.7571 12.2164 31.0789 14.3851L39.7719 1.96713C40.3516 1.13822 39.7594 -6.10352e-05 38.7477 -6.10352e-05V-6.10352e-05ZM20 12.5C12.4062 12.5 6.24996 18.6562 6.24996 26.25C6.24996 33.8438 12.4062 40.0001 20 40.0001C27.5938 40.0001 33.75 33.8438 33.75 26.25C33.75 18.6562 27.5938 12.5 20 12.5ZM27.2281 24.7859L24.2649 27.6735L24.9656 31.7532C25.0906 32.4844 24.3203 33.043 23.6649 32.6977L20 30.7719L16.3359 32.6977C15.6797 33.0453 14.9101 32.4836 15.0351 31.7532L15.7359 27.6735L12.7726 24.7859C12.2398 24.2672 12.5344 23.3617 13.2687 23.2555L17.3648 22.6586L19.1953 18.9461C19.3602 18.6117 19.6789 18.4469 19.9984 18.4469C20.3195 18.4469 20.6406 18.6141 20.8055 18.9461L22.6359 22.6586L26.7321 23.2555C27.4664 23.3617 27.761 24.2672 27.2281 24.7859Z" fill="#9D4EDD"/>
</svg>
