<svg width="31" height="31" viewBox="0 0 31 31" fill="none" xmlns="http://www.w3.org/2000/svg">
<path d="M15.834 0.5C7.54769 0.5 0.833984 7.21371 0.833984 15.5C0.833984 23.7863 7.54769 30.5 15.834 30.5C24.1203 30.5 30.834 23.7863 30.834 15.5C30.834 7.21371 24.1203 0.5 15.834 0.5ZM21.4281 19.4315L20.2185 20.9435C20.1391 21.0428 20.0409 21.1254 19.9296 21.1868C19.8183 21.2481 19.696 21.2869 19.5696 21.3009C19.4433 21.3149 19.3155 21.304 19.1934 21.2686C19.0713 21.2332 18.9574 21.1742 18.8582 21.0948L14.8058 18.0875C14.5226 17.8608 14.2941 17.5733 14.137 17.2464C13.98 16.9194 13.8985 16.5613 13.8985 16.1986V6.79032C13.8985 6.53366 14.0005 6.28751 14.1819 6.10603C14.3634 5.92454 14.6096 5.82258 14.8662 5.82258H16.8017C17.0584 5.82258 17.3045 5.92454 17.486 6.10603C17.6675 6.28751 17.7695 6.53366 17.7695 6.79032V15.5L21.2775 18.0706C21.3768 18.15 21.4595 18.2482 21.5208 18.3596C21.5821 18.471 21.6209 18.5934 21.6349 18.7198C21.6488 18.8462 21.6378 18.9741 21.6023 19.0962C21.5668 19.2183 21.5077 19.3322 21.4281 19.4315Z" fill="black"/>
</svg>
