<svg width="50" height="51" viewBox="0 0 50 51" fill="none" xmlns="http://www.w3.org/2000/svg">
<rect y="0.5" width="50" height="50" rx="4" fill="#9D4EDD"/>
<path d="M30.4688 13H19.5312C18.2373 13 17.1875 14.0498 17.1875 15.3438V35.6562C17.1875 36.9502 18.2373 38 19.5312 38H30.4688C31.7627 38 32.8125 36.9502 32.8125 35.6562V15.3438C32.8125 14.0498 31.7627 13 30.4688 13ZM25 36.4375C24.1357 36.4375 23.4375 35.7393 23.4375 34.875C23.4375 34.0107 24.1357 33.3125 25 33.3125C25.8643 33.3125 26.5625 34.0107 26.5625 34.875C26.5625 35.7393 25.8643 36.4375 25 36.4375ZM30.4688 31.1641C30.4688 31.4863 30.2051 31.75 29.8828 31.75H20.1172C19.7949 31.75 19.5312 31.4863 19.5312 31.1641V15.9297C19.5312 15.6074 19.7949 15.3438 20.1172 15.3438H29.8828C30.2051 15.3438 30.4688 15.6074 30.4688 15.9297V31.1641Z" fill="black"/>
</svg>
