<svg width="50" height="41" viewBox="0 0 50 41" fill="none" xmlns="http://www.w3.org/2000/svg">
<path d="M30 25.5H20C18.6195 25.5 17.5 26.6195 17.5 28V38C17.5 39.3805 18.6195 40.5 20 40.5H30C31.3805 40.5 32.5 39.3805 32.5 38V28C32.5 26.6195 31.3805 25.5 30 25.5ZM15 3C15 1.61953 13.8805 0.5 12.5 0.5H2.5C1.11953 0.5 0 1.61953 0 3V13C0 14.3805 1.11953 15.5 2.5 15.5H9.97812L15.6938 25.5031C16.5609 24.0141 18.1562 23 20 23H20.0219L15 14.2117V10.5H32.5V5.5H15V3ZM47.5 0.5H37.5C36.1195 0.5 35 1.61953 35 3V13C35 14.3805 36.1195 15.5 37.5 15.5H47.5C48.8805 15.5 50 14.3805 50 13V3C50 1.61953 48.8805 0.5 47.5 0.5Z" fill="#9D4EDD"/>
</svg>
