<svg width="21" height="20" viewBox="0 0 21 20" fill="none" xmlns="http://www.w3.org/2000/svg">
<path d="M15.1781 12.9272C16.3884 11.2756 16.9305 9.22795 16.6959 7.19385C16.4613 5.15975 15.4673 3.28923 13.9128 1.95652C12.3583 0.623812 10.3579 -0.0728086 8.31187 0.00602988C6.26581 0.0848684 4.32496 0.933352 2.87762 2.38173C1.43028 3.83011 0.583182 5.77156 0.505808 7.81768C0.428434 9.8638 1.12649 11.8637 2.46031 13.4172C3.79413 14.9708 5.66536 15.9634 7.69963 16.1966C9.73389 16.4297 11.7812 15.8861 13.4319 14.6746H13.4306C13.4681 14.7246 13.5081 14.7721 13.5531 14.8184L18.3654 19.6307C18.5998 19.8652 18.9178 19.9971 19.2493 19.9972C19.5809 19.9973 19.899 19.8657 20.1335 19.6313C20.3681 19.3969 20.4999 19.079 20.5 18.7474C20.5001 18.4158 20.3685 18.0978 20.1341 17.8633L15.3218 13.0509C15.2771 13.0057 15.2291 12.9639 15.1781 12.926V12.9272ZM15.5006 8.12238C15.5006 9.02518 15.3227 9.91915 14.9773 10.7532C14.6318 11.5873 14.1254 12.3452 13.487 12.9836C12.8486 13.6219 12.0907 14.1283 11.2567 14.4738C10.4226 14.8193 9.52862 14.9971 8.62582 14.9971C7.72301 14.9971 6.82905 14.8193 5.99497 14.4738C5.16089 14.1283 4.40302 13.6219 3.76464 12.9836C3.12626 12.3452 2.61987 11.5873 2.27438 10.7532C1.9289 9.91915 1.75108 9.02518 1.75108 8.12238C1.75108 6.29909 2.47538 4.55047 3.76464 3.2612C5.05391 1.97194 6.80252 1.24764 8.62582 1.24764C10.4491 1.24764 12.1977 1.97194 13.487 3.2612C14.7763 4.55047 15.5006 6.29909 15.5006 8.12238Z" fill="black"/>
</svg>
