<svg width="50" height="51" viewBox="0 0 50 51" fill="none" xmlns="http://www.w3.org/2000/svg">
<path d="M20.1915 24.6935C21.4415 22.8085 21.7137 20.9335 21.7742 19.0484C21.7238 17.1633 21.4415 15.2883 20.1915 13.4032C19.3851 12.1935 17.6613 12.254 16.8952 13.4032C15.6452 15.2883 15.373 17.1633 15.3125 19.0484C15.3629 20.9335 15.6452 22.8085 16.8952 24.6935C17.7117 25.9032 19.4355 25.8427 20.1915 24.6935ZM33.0948 24.6935C34.3448 22.8085 34.6169 20.9335 34.6774 19.0484C34.627 17.1633 34.3448 15.2883 33.0948 13.4032C32.2883 12.1935 30.5645 12.254 29.7984 13.4032C28.5484 15.2883 28.2762 17.1633 28.2157 19.0484C28.2661 20.9335 28.5484 22.8085 29.7984 24.6935C30.6149 25.9032 32.3387 25.8427 33.0948 24.6935ZM25 0.5C11.1895 0.5 0 11.6895 0 25.5C0 39.3105 11.1895 50.5 25 50.5C38.8105 50.5 50 39.3105 50 25.5C50 11.6895 38.8105 0.5 25 0.5ZM25 45.6613C13.881 45.6613 4.83871 36.6189 4.83871 25.5C4.83871 14.381 13.881 5.33871 25 5.33871C36.1189 5.33871 45.1613 14.381 45.1613 25.5C45.1613 36.6189 36.1189 45.6613 25 45.6613ZM35.6452 30.3992C33.0343 31.2359 29.1532 31.7198 25 31.7198C20.8468 31.7198 16.9758 31.2359 14.3548 30.3992C13.3569 30.0867 12.3992 30.9335 12.5706 31.9415C13.3669 36.6996 19.7581 40.006 25 40.006C30.2419 40.006 36.623 36.6895 37.4294 31.9415C37.5907 30.9536 36.6532 30.0867 35.6452 30.3992Z" fill="#9D4EDD"/>
</svg>
