<svg width="31" height="31" viewBox="0 0 31 31" fill="none" xmlns="http://www.w3.org/2000/svg">
<path d="M15.834 0.5C7.54961 0.5 0.833984 9.13437 0.833984 19.7857C0.833984 23.3214 1.57617 26.6335 2.86836 29.4821C3.16055 30.1263 3.71732 30.5 4.29753 30.5H27.3704C27.9507 30.5 28.5074 30.1263 28.7996 29.4821C30.0918 26.6335 30.834 23.3214 30.834 19.7857C30.834 9.13437 24.1184 0.5 15.834 0.5ZM15.834 4.78571C16.6001 4.78571 17.2184 5.46406 17.4132 6.36942C17.3553 6.52076 17.2757 6.65268 17.2335 6.81607L16.7533 8.66897C16.4861 8.90268 16.1819 9.07143 15.8345 9.07143C14.9142 9.07143 14.1678 8.11183 14.1678 6.92857C14.1678 5.74531 14.9137 4.78571 15.834 4.78571ZM5.83398 24.0714C4.91367 24.0714 4.16732 23.1118 4.16732 21.9286C4.16732 20.7453 4.91367 19.7857 5.83398 19.7857C6.7543 19.7857 7.50065 20.7453 7.50065 21.9286C7.50065 23.1118 6.7543 24.0714 5.83398 24.0714ZM8.33398 13.3571C7.41367 13.3571 6.66732 12.3975 6.66732 11.2143C6.66732 10.031 7.41367 9.07143 8.33398 9.07143C9.2543 9.07143 10.0007 10.031 10.0007 11.2143C10.0007 12.3975 9.2543 13.3571 8.33398 13.3571ZM21.1866 8.50826L17.9923 20.8297C18.7053 21.6158 19.1673 22.7683 19.1673 24.0714C19.1673 24.8562 18.9913 25.5815 18.7048 26.2143H12.9632C12.6767 25.5815 12.5007 24.8562 12.5007 24.0714C12.5007 21.7987 13.8809 19.9578 15.6204 19.8132L18.8152 7.49107C19.0324 6.65 19.7387 6.18862 20.3965 6.47522C21.0512 6.7558 21.4043 7.66652 21.1866 8.50826V8.50826ZM21.9501 12.3386L22.7585 9.22143C22.9392 9.13504 23.1298 9.0721 23.334 9.0721C24.2543 9.0721 25.0007 10.0317 25.0007 11.215C25.0007 12.3982 24.2543 13.3578 23.334 13.3578C22.7413 13.3571 22.246 12.9373 21.9501 12.3386ZM25.834 24.0714C24.9137 24.0714 24.1673 23.1118 24.1673 21.9286C24.1673 20.7453 24.9137 19.7857 25.834 19.7857C26.7543 19.7857 27.5007 20.7453 27.5007 21.9286C27.5007 23.1118 26.7543 24.0714 25.834 24.0714Z" fill="black"/>
</svg>
