<svg width="40" height="32" viewBox="0 0 40 32" fill="none" xmlns="http://www.w3.org/2000/svg">
<path d="M20 0.444458C8.95417 0.444458 0 9.39862 0 20.4445C0 24.1111 0.989584 27.5458 2.7125 30.5C3.10208 31.1681 3.84444 31.5556 4.61806 31.5556H35.3819C36.1556 31.5556 36.8979 31.1681 37.2875 30.5C39.0104 27.5458 40 24.1111 40 20.4445C40 9.39862 31.0458 0.444458 20 0.444458ZM20 4.8889C21.0215 4.8889 21.8458 5.59238 22.1056 6.53126C22.0285 6.68821 21.9222 6.82501 21.866 6.99446L21.2257 8.91599C20.8694 9.15835 20.4639 9.33335 20.0007 9.33335C18.7736 9.33335 17.7785 8.33821 17.7785 7.11112C17.7785 5.88404 18.7729 4.8889 20 4.8889ZM6.66667 24.8889C5.43958 24.8889 4.44444 23.8938 4.44444 22.6667C4.44444 21.4396 5.43958 20.4445 6.66667 20.4445C7.89375 20.4445 8.88889 21.4396 8.88889 22.6667C8.88889 23.8938 7.89375 24.8889 6.66667 24.8889ZM10 13.7778C8.77292 13.7778 7.77778 12.7827 7.77778 11.5556C7.77778 10.3285 8.77292 9.33335 10 9.33335C11.2271 9.33335 12.2222 10.3285 12.2222 11.5556C12.2222 12.7827 11.2271 13.7778 10 13.7778ZM27.1368 8.74932L22.8778 21.5271C23.8285 22.3424 24.4444 23.5375 24.4444 24.8889C24.4444 25.7028 24.2097 26.4549 23.8278 27.1111H16.1722C15.7903 26.4549 15.5556 25.7028 15.5556 24.8889C15.5556 22.532 17.3958 20.6229 19.7153 20.4729L23.975 7.69446C24.2646 6.82224 25.2063 6.34376 26.0833 6.64099C26.9563 6.93196 27.4271 7.8764 27.1368 8.74932ZM28.1549 12.7215L29.2326 9.4889C29.4736 9.39932 29.7278 9.33404 30 9.33404C31.2271 9.33404 32.2222 10.3292 32.2222 11.5563C32.2222 12.7833 31.2271 13.7785 30 13.7785C29.2097 13.7778 28.5493 13.3424 28.1549 12.7215ZM33.3333 24.8889C32.1063 24.8889 31.1111 23.8938 31.1111 22.6667C31.1111 21.4396 32.1063 20.4445 33.3333 20.4445C34.5604 20.4445 35.5556 21.4396 35.5556 22.6667C35.5556 23.8938 34.5604 24.8889 33.3333 24.8889Z" fill="#9D4EDD"/>
</svg>
