<svg width="20" height="21" viewBox="0 0 20 21" fill="none" xmlns="http://www.w3.org/2000/svg">
<path d="M20 10.0537C20 12.7059 18.9464 15.2494 17.0711 17.1248C15.1957 19.0001 12.6522 20.0537 10 20.0537C7.34784 20.0537 4.8043 19.0001 2.92893 17.1248C1.05357 15.2494 0 12.7059 0 10.0537C0 7.40155 1.05357 4.85801 2.92893 2.98264C4.8043 1.10728 7.34784 0.0537109 10 0.0537109C12.6522 0.0537109 15.1957 1.10728 17.0711 2.98264C18.9464 4.85801 20 7.40155 20 10.0537ZM10.3587 7.43621C9.38625 7.84121 7.44125 8.67871 4.52625 9.94871C4.05375 10.1362 3.805 10.3212 3.7825 10.5012C3.745 10.805 4.12625 10.925 4.645 11.0887L4.86375 11.1575C5.37375 11.3237 6.06125 11.5175 6.4175 11.525C6.7425 11.5325 7.10375 11.4 7.5025 11.125C10.2262 9.28621 11.6325 8.35746 11.72 8.33746C11.7825 8.32246 11.87 8.30496 11.9275 8.35746C11.9862 8.40871 11.98 8.50746 11.9738 8.53371C11.9363 8.69496 10.44 10.085 9.66625 10.805C9.425 11.03 9.25375 11.1887 9.21875 11.225C9.14168 11.3037 9.06333 11.3812 8.98375 11.4575C8.50875 11.915 8.15375 12.2575 9.0025 12.8175C9.41125 13.0875 9.73875 13.3087 10.065 13.5312C10.42 13.7737 10.775 14.015 11.235 14.3175C11.3512 14.3925 11.4638 14.4737 11.5725 14.5512C11.9863 14.8462 12.36 15.1112 12.8188 15.0687C13.0863 15.0437 13.3625 14.7937 13.5025 14.0437C13.8337 12.2725 14.485 8.43621 14.635 6.85496C14.6442 6.72351 14.6387 6.59146 14.6187 6.46121C14.607 6.35611 14.5561 6.25928 14.4763 6.18996C14.3625 6.11145 14.2269 6.07077 14.0887 6.07371C13.7137 6.07996 13.135 6.28121 10.3587 7.43621Z" fill="white"/>
</svg>
